<svg width="16" height="16" viewBox="0 0 16 16" fill="none" xmlns="http://www.w3.org/2000/svg">
<path fill-rule="evenodd" clip-rule="evenodd" d="M1.1825 0C0.529625 0 0 0.5135 0 1.14612V14.8542C0 15.4869 0.529688 16 1.1825 16H14.8175C15.4706 16 16 15.4869 16 14.8541V1.14612C16 0.5135 15.4706 0 14.8175 0H1.1825ZM4.86212 6.18668V13.3899H2.46787V6.18668H4.86212ZM5.01993 3.95899C5.01993 4.65024 4.50024 5.20337 3.66549 5.20337L3.6498 5.20331C2.84624 5.20331 2.32674 4.65018 2.32674 3.95893C2.32674 3.25199 2.86193 2.71431 3.68137 2.71431C4.50024 2.71431 5.0043 3.25199 5.01993 3.95899ZM8.58143 13.3899H6.18737C6.18737 13.3899 6.21874 6.86268 6.18749 6.18693H8.58162V7.20652C8.89988 6.7158 9.46947 6.01781 10.7394 6.01781C12.3146 6.01781 13.4956 7.04737 13.4956 9.25981V13.3899H11.1016V9.53681C11.1016 8.56837 10.7549 7.90787 9.8888 7.90787C9.22724 7.90787 8.8333 8.35331 8.66031 8.78362C8.59705 8.93718 8.58143 9.15274 8.58143 9.36774V13.3899Z" fill="white"/>
</svg>
