<svg width="13" height="16" viewBox="0 0 13 16" fill="none" xmlns="http://www.w3.org/2000/svg">
<path d="M5.29783 0.0535073C2.70057 0.350317 0.112462 2.50141 0.00564169 5.57417C-0.0615026 7.45032 0.458865 8.85782 2.20309 9.25305C2.95999 7.88616 1.95893 7.58466 1.80328 6.59582C1.16388 2.54359 6.36909 -0.21987 9.09301 2.6092C10.9776 4.56814 9.73699 10.5949 6.69718 9.96851C3.78556 9.37021 8.12247 4.57283 5.79836 3.63085C3.90917 2.86539 2.90505 5.97252 3.80082 7.51593C3.27587 10.17 2.1451 12.671 2.60291 16C4.08771 14.8971 4.58824 12.7851 4.99874 10.5824C5.74495 11.0464 6.14324 11.5291 7.09547 11.6041C10.6068 11.8822 12.5677 8.01582 12.0886 4.44942C11.6628 1.28761 8.58027 -0.32141 5.29783 0.0535073Z" fill="white"/>
</svg>
