<svg width="24" height="24" viewBox="0 0 24 24" fill="none" xmlns="http://www.w3.org/2000/svg">
<path d="M22.845 18.8258C22.845 19.2233 22.7567 19.6318 22.5689 20.0293C22.3812 20.4268 22.1383 20.8022 21.8181 21.1556C21.2771 21.7518 20.6808 22.1824 20.0073 22.4585C19.3448 22.7345 18.6271 22.878 17.8542 22.878C16.728 22.878 15.5244 22.6131 14.2546 22.072C12.9849 21.531 11.7151 20.8022 10.4564 19.8858C9.18657 18.9583 7.98304 17.9314 6.83472 16.7941C5.69744 15.6458 4.67057 14.4423 3.75412 13.1836C2.84871 11.9248 2.11997 10.6661 1.58998 9.41838C1.05998 8.15965 0.794983 6.95611 0.794983 5.80779C0.794983 5.05697 0.927482 4.33926 1.19248 3.67677C1.45748 3.00323 1.87706 2.38491 2.46226 1.83283C3.16892 1.13721 3.94183 0.794922 4.7589 0.794922C5.06807 0.794922 5.37723 0.861171 5.65327 0.99367C5.94035 1.12617 6.19431 1.32492 6.39306 1.612L8.9547 5.22259C9.15345 5.49863 9.29699 5.75258 9.39636 5.9955C9.49574 6.22737 9.55094 6.45924 9.55094 6.66903C9.55094 6.93403 9.47365 7.19903 9.31907 7.45298C9.17553 7.70694 8.96574 7.97194 8.70074 8.23694L7.86158 9.10922C7.74013 9.23068 7.68492 9.37422 7.68492 9.55088C7.68492 9.63921 7.69596 9.71651 7.71804 9.80484C7.75117 9.89317 7.78429 9.95942 7.80638 10.0257C8.00512 10.39 8.34741 10.8648 8.83324 11.439C9.33011 12.0132 9.86011 12.5984 10.4343 13.1836C11.0305 13.7688 11.6047 14.3098 12.1899 14.8067C12.764 15.2925 13.2388 15.6237 13.6142 15.8225C13.6694 15.8446 13.7357 15.8777 13.813 15.9108C13.9013 15.9439 13.9897 15.955 14.089 15.955C14.2767 15.955 14.4203 15.8887 14.5417 15.7673L15.3809 14.9392C15.6569 14.6631 15.9219 14.4533 16.1759 14.3208C16.4298 14.1663 16.6838 14.089 16.9598 14.089C17.1696 14.089 17.3905 14.1331 17.6334 14.2325C17.8763 14.3319 18.1302 14.4754 18.4063 14.6631L22.061 17.2579C22.3481 17.4566 22.5469 17.6885 22.6683 17.9646C22.7787 18.2406 22.845 18.5166 22.845 18.8258Z" stroke="#1E1E1E" stroke-width="1.58999" stroke-miterlimit="10"/>
<path d="M19.0137 8.52373C19.0137 7.86123 18.4947 6.84541 17.7218 6.01729C17.0151 5.25542 16.0766 4.65918 15.1491 4.65918" stroke="#1E1E1E" stroke-width="1.58999" stroke-linecap="round" stroke-linejoin="round"/>
<path d="M22.8782 8.52402C22.8782 4.25093 19.4222 0.794922 15.1491 0.794922" stroke="#1E1E1E" stroke-width="1.58999" stroke-linecap="round" stroke-linejoin="round"/>
</svg>
