<svg width="32" height="32" viewBox="0 0 32 32" fill="none" xmlns="http://www.w3.org/2000/svg">
<path d="M0.719971 18.88C0.779171 18.5712 0.819171 18.2592 0.900771 17.9568C1.12317 17.136 1.62717 16.5744 2.36157 16.112C3.60477 15.336 5.02237 14.9552 6.29597 14.24C8.99634 12.7413 11.2878 10.6031 12.9696 8.01279C13.2863 7.49976 13.6342 7.00657 14.0112 6.53599C14.56 5.88319 15.04 5.77279 15.8192 6.12799C16.512 6.44799 17.032 6.97279 17.504 7.55039C18.6944 9.00959 19.5504 10.6672 20.2928 12.3856C21.2176 14.4518 21.8721 16.6287 22.24 18.8624C22.416 20.0208 22.4992 21.1808 22.2128 22.3376C22.1369 22.6552 22.0134 22.9594 21.8464 23.24C21.4272 23.936 20.7728 24.2 19.9728 24.0288C18.7168 23.7616 17.504 23.328 16.2416 23.0832C14.6365 22.7798 12.9943 22.7258 11.3728 22.9232C11.2704 22.9344 11.1952 22.9488 11.1456 23.0656C11.0324 23.2892 10.9956 23.5438 11.041 23.7904C11.0864 24.0369 11.2114 24.2617 11.3968 24.4304C11.5035 24.5275 11.5875 24.647 11.6428 24.7803C11.6981 24.9136 11.7233 25.0574 11.7168 25.2016C11.7168 25.3504 11.7008 25.4976 11.6784 25.6448C11.5872 26.2672 11.5968 26.2848 12.1584 26.5504C12.9088 26.9056 13.1184 27.4544 12.6896 28.16C12.168 29.0048 11.456 29.6688 10.4832 29.9952C10.457 30.0076 10.4327 30.0238 10.4112 30.0432H9.97757C9.33757 29.8544 8.95197 29.4032 8.66877 28.8384C8.56157 28.6272 8.46397 28.4112 8.37437 28.1984C7.84756 26.8774 7.44632 25.5098 7.17597 24.1136C7.12957 23.8832 7.05917 23.8192 6.80957 23.8976C6.33593 24.0568 5.85149 24.1819 5.35997 24.272C4.84561 24.3745 4.31394 24.3491 3.81174 24.1978C3.30953 24.0466 2.85219 23.7743 2.47997 23.4048C1.69757 22.6736 1.25277 21.76 0.959971 20.7568C0.838371 20.3376 0.815971 19.9024 0.721571 19.4768L0.719971 18.88ZM13.424 9.17599C13.3392 9.21439 13.3024 9.31039 13.248 9.38879C12.2315 10.8289 11.0175 12.1189 9.64157 13.2208C8.62432 14.0055 7.54625 14.7079 6.41757 15.3216C5.29757 15.9536 4.04157 16.2816 2.93917 16.9744C2.38237 17.32 1.97117 17.704 1.85757 18.328C1.69853 19.1011 1.7362 19.9018 1.96711 20.6566C2.19802 21.4114 2.61479 22.0962 3.17917 22.648C3.40309 22.8963 3.68667 23.0833 4.00305 23.1913C4.31943 23.2994 4.65816 23.325 4.98717 23.2656C5.40686 23.2171 5.82168 23.133 6.22717 23.0144C6.53437 22.904 6.85117 22.8224 7.16477 22.736C7.69597 22.5872 7.89757 22.7072 8.01757 23.2368C8.25277 24.2752 8.46077 25.3168 8.79197 26.3376C9.04637 27.1152 9.27197 27.9056 9.71517 28.6096C9.96637 29.0192 10.2384 29.0736 10.6336 28.8048C10.9671 28.5732 11.2735 28.3048 11.5472 28.0048C11.9248 27.6016 11.9168 27.5504 11.4112 27.3312C11.1457 27.2392 10.9206 27.0576 10.7745 26.8175C10.6285 26.5775 10.5708 26.294 10.6112 26.016C10.6272 25.8192 10.6464 25.6224 10.6752 25.4272C10.695 25.3467 10.6904 25.2622 10.6619 25.1843C10.6334 25.1065 10.5823 25.039 10.5152 24.9904C10.3685 24.8722 10.2486 24.7242 10.1634 24.5563C10.0782 24.3883 10.0296 24.2041 10.0208 24.016C9.9858 23.4215 10.0956 22.8275 10.3408 22.2848C10.3754 22.1962 10.4343 22.1192 10.5107 22.0626C10.5871 22.006 10.678 21.9721 10.7728 21.9648C12.6149 21.691 14.4895 21.7218 16.3216 22.056C16.9616 22.1776 17.584 22.3504 18.2288 22.5072C15.2368 18.56 13.7472 14.08 13.424 9.17599ZM14.4736 9.27999C14.4848 10.7424 14.7568 12.16 15.0992 13.5808C15.1504 13.792 15.2496 13.7744 15.4192 13.7408C16.96 13.4736 18.232 14.2704 18.5024 15.712C18.7344 16.9488 18.328 17.9744 17.3216 18.7392C17.152 18.8672 17.1184 18.9472 17.2256 19.1312C17.5216 19.6464 17.8128 20.1616 18.1472 20.6528C18.6938 21.4922 19.3606 22.247 20.1264 22.8928C20.4464 23.152 20.7168 23.1088 20.9424 22.7632C21.0948 22.5181 21.2006 22.2468 21.2544 21.9632C21.4704 20.9488 21.3824 19.9344 21.2224 18.9232C20.8576 16.624 20.1168 14.4432 19.1648 12.3264C18.496 10.8352 17.7248 9.39679 16.68 8.13119C16.3598 7.71413 15.9628 7.3622 15.5104 7.09439C15.056 6.84799 14.8896 6.91519 14.7104 7.40159C14.5217 8.00895 14.4415 8.64481 14.4736 9.27999Z" fill="white"/>
<path d="M31.28 20.784C31.0896 21.104 30.8128 21.2048 30.4432 21.2144C29.1104 21.2464 27.7792 21.3104 26.4432 21.36C26.048 21.376 25.784 21.2096 25.7056 20.9056C25.6795 20.8123 25.6759 20.7142 25.695 20.6192C25.714 20.5243 25.7553 20.4352 25.8153 20.3592C25.8754 20.2833 25.9526 20.2226 26.0405 20.1821C26.1285 20.1416 26.2248 20.1225 26.3216 20.1264C27.2288 20.0864 28.136 20.0512 29.0416 20.016C29.4848 19.9984 29.9296 19.9984 30.3712 19.9584C30.7632 19.9216 31.064 20.0304 31.272 20.3696L31.28 20.784Z" fill="white"/>
<path d="M25.0496 2.54715C25.0521 2.64899 25.0308 2.75002 24.9875 2.84222C24.9442 2.93442 24.88 3.01527 24.8 3.07835C23.5744 4.08955 22.3477 5.10288 21.12 6.11835C21.0585 6.17596 20.9859 6.22033 20.9067 6.2487C20.8274 6.27708 20.7431 6.28886 20.6591 6.28331C20.5751 6.27776 20.4931 6.255 20.4182 6.21643C20.3434 6.17787 20.2773 6.12434 20.224 6.05915C20.1685 5.99525 20.127 5.92042 20.1023 5.8395C20.0776 5.75858 20.0701 5.67337 20.0803 5.58937C20.0906 5.50537 20.1183 5.42447 20.1618 5.35187C20.2053 5.27928 20.2635 5.21662 20.3328 5.16795C21.552 4.15035 22.7792 3.14075 24.0032 2.12795C24.0947 2.04326 24.21 1.98855 24.3335 1.97111C24.457 1.95367 24.5829 1.97433 24.6944 2.03035C24.7955 2.07535 24.8822 2.14744 24.9448 2.23865C25.0075 2.32986 25.0438 2.43662 25.0496 2.54715Z" fill="white"/>
<path d="M23.1872 9.59036C22.8224 9.59036 22.6192 9.44316 22.5264 9.17276C22.4823 9.0553 22.4773 8.92675 22.5122 8.80625C22.5471 8.68574 22.62 8.57972 22.72 8.50396C22.7975 8.4431 22.8806 8.38954 22.968 8.34396L26.56 6.28156C26.6274 6.23987 26.6974 6.20246 26.7696 6.16956C26.9063 6.10916 27.0604 6.1007 27.203 6.14576C27.3455 6.19083 27.4668 6.28632 27.544 6.41436C27.6272 6.54518 27.657 6.70296 27.6272 6.85511C27.5974 7.00726 27.5103 7.14216 27.384 7.23196C27.2356 7.32983 27.0823 7.42008 26.9248 7.50236L23.5536 9.43996C23.4448 9.51795 23.3193 9.56945 23.1872 9.59036Z" fill="white"/>
<path d="M29.904 11.2464C29.903 11.3721 29.8628 11.4943 29.7891 11.5961C29.7154 11.6979 29.6119 11.7742 29.4928 11.8144C28.1136 12.2944 26.7344 12.7744 25.3504 13.2544C25.1959 13.3081 25.0265 13.2982 24.8793 13.2269C24.7321 13.1557 24.6193 13.0289 24.5656 12.8744C24.5119 12.7199 24.5218 12.5505 24.5931 12.4033C24.6643 12.2561 24.7911 12.1433 24.9456 12.0896C26.3232 11.6096 27.7024 11.12 29.088 10.6496C29.1819 10.6177 29.2821 10.6089 29.3801 10.624C29.4781 10.639 29.5711 10.6774 29.6511 10.7359C29.7311 10.7945 29.7959 10.8714 29.8399 10.9603C29.8839 11.0491 29.9059 11.1473 29.904 11.2464Z" fill="white"/>
<path d="M29.9648 15.3808C30.4448 15.3584 30.7152 15.5648 30.7536 15.9056C30.7664 15.9892 30.7616 16.0745 30.7395 16.1561C30.7173 16.2377 30.6783 16.3138 30.6249 16.3794C30.5715 16.445 30.505 16.4986 30.4296 16.5369C30.3542 16.5752 30.2716 16.5972 30.1872 16.6016C29.0832 16.7616 27.9776 16.8976 26.8736 17.0448C26.6384 17.0752 26.4048 17.1152 26.168 17.1312C26.014 17.1454 25.8604 17.0996 25.7394 17.0033C25.6183 16.907 25.5392 16.7677 25.5184 16.6144C25.5028 16.5362 25.5033 16.4557 25.5198 16.3778C25.5363 16.2998 25.5685 16.226 25.6145 16.1609C25.6604 16.0958 25.7192 16.0407 25.7871 15.999C25.855 15.9573 25.9307 15.9299 26.0096 15.9184C27.36 15.7264 28.7072 15.5504 29.9648 15.3808Z" fill="white"/>
<g clip-path="url(#clip0_1_206)">
<path d="M0.719971 18.88C0.779171 18.5712 0.819171 18.2592 0.900771 17.9568C1.12317 17.136 1.62717 16.5744 2.36157 16.112C3.60477 15.336 5.02237 14.9552 6.29597 14.24C8.99634 12.7413 11.2878 10.6031 12.9696 8.01279C13.2863 7.49976 13.6342 7.00657 14.0112 6.53599C14.56 5.88319 15.04 5.77279 15.8192 6.12799C16.512 6.44799 17.032 6.97279 17.504 7.55039C18.6944 9.00959 19.5504 10.6672 20.2928 12.3856C21.2176 14.4518 21.8721 16.6287 22.24 18.8624C22.416 20.0208 22.4992 21.1808 22.2128 22.3376C22.1369 22.6552 22.0134 22.9594 21.8464 23.24C21.4272 23.936 20.7728 24.2 19.9728 24.0288C18.7168 23.7616 17.504 23.328 16.2416 23.0832C14.6365 22.7798 12.9943 22.7258 11.3728 22.9232C11.2704 22.9344 11.1952 22.9488 11.1456 23.0656C11.0324 23.2892 10.9956 23.5438 11.041 23.7904C11.0864 24.0369 11.2114 24.2617 11.3968 24.4304C11.5035 24.5275 11.5875 24.647 11.6428 24.7803C11.6981 24.9136 11.7233 25.0574 11.7168 25.2016C11.7168 25.3504 11.7008 25.4976 11.6784 25.6448C11.5872 26.2672 11.5968 26.2848 12.1584 26.5504C12.9088 26.9056 13.1184 27.4544 12.6896 28.16C12.168 29.0048 11.456 29.6688 10.4832 29.9952C10.457 30.0076 10.4327 30.0238 10.4112 30.0432H9.97757C9.33757 29.8544 8.95197 29.4032 8.66877 28.8384C8.56157 28.6272 8.46397 28.4112 8.37437 28.1984C7.84756 26.8774 7.44632 25.5098 7.17597 24.1136C7.12957 23.8832 7.05917 23.8192 6.80957 23.8976C6.33593 24.0568 5.85149 24.1819 5.35997 24.272C4.84561 24.3745 4.31394 24.3491 3.81174 24.1978C3.30953 24.0466 2.85219 23.7743 2.47997 23.4048C1.69757 22.6736 1.25277 21.76 0.959971 20.7568C0.838371 20.3376 0.815971 19.9024 0.721571 19.4768L0.719971 18.88ZM13.424 9.17599C13.3392 9.21439 13.3024 9.31039 13.248 9.38879C12.2315 10.8289 11.0175 12.1189 9.64157 13.2208C8.62432 14.0055 7.54625 14.7079 6.41757 15.3216C5.29757 15.9536 4.04157 16.2816 2.93917 16.9744C2.38237 17.32 1.97117 17.704 1.85757 18.328C1.69853 19.1011 1.7362 19.9018 1.96711 20.6566C2.19802 21.4114 2.61479 22.0962 3.17917 22.648C3.40309 22.8963 3.68667 23.0833 4.00305 23.1913C4.31943 23.2994 4.65816 23.325 4.98717 23.2656C5.40686 23.2171 5.82168 23.133 6.22717 23.0144C6.53437 22.904 6.85117 22.8224 7.16477 22.736C7.69597 22.5872 7.89757 22.7072 8.01757 23.2368C8.25277 24.2752 8.46077 25.3168 8.79197 26.3376C9.04637 27.1152 9.27197 27.9056 9.71517 28.6096C9.96637 29.0192 10.2384 29.0736 10.6336 28.8048C10.9671 28.5732 11.2735 28.3048 11.5472 28.0048C11.9248 27.6016 11.9168 27.5504 11.4112 27.3312C11.1457 27.2392 10.9206 27.0576 10.7745 26.8175C10.6285 26.5775 10.5708 26.294 10.6112 26.016C10.6272 25.8192 10.6464 25.6224 10.6752 25.4272C10.695 25.3467 10.6904 25.2622 10.6619 25.1843C10.6334 25.1065 10.5823 25.039 10.5152 24.9904C10.3685 24.8722 10.2486 24.7242 10.1634 24.5563C10.0782 24.3883 10.0296 24.2041 10.0208 24.016C9.9858 23.4215 10.0956 22.8275 10.3408 22.2848C10.3754 22.1962 10.4343 22.1192 10.5107 22.0626C10.5871 22.006 10.678 21.9721 10.7728 21.9648C12.6149 21.691 14.4895 21.7218 16.3216 22.056C16.9616 22.1776 17.584 22.3504 18.2288 22.5072C15.2368 18.56 13.7472 14.08 13.424 9.17599ZM14.4736 9.27999C14.4848 10.7424 14.7568 12.16 15.0992 13.5808C15.1504 13.792 15.2496 13.7744 15.4192 13.7408C16.96 13.4736 18.232 14.2704 18.5024 15.712C18.7344 16.9488 18.328 17.9744 17.3216 18.7392C17.152 18.8672 17.1184 18.9472 17.2256 19.1312C17.5216 19.6464 17.8128 20.1616 18.1472 20.6528C18.6938 21.4922 19.3606 22.247 20.1264 22.8928C20.4464 23.152 20.7168 23.1088 20.9424 22.7632C21.0948 22.5181 21.2006 22.2468 21.2544 21.9632C21.4704 20.9488 21.3824 19.9344 21.2224 18.9232C20.8576 16.624 20.1168 14.4432 19.1648 12.3264C18.496 10.8352 17.7248 9.39679 16.68 8.13119C16.3598 7.71413 15.9628 7.3622 15.5104 7.09439C15.056 6.84799 14.8896 6.91519 14.7104 7.40159C14.5217 8.00895 14.4415 8.64481 14.4736 9.27999Z" fill="white" stroke="white"/>
<path d="M31.28 20.784C31.0896 21.104 30.8128 21.2048 30.4432 21.2144C29.1104 21.2464 27.7792 21.3104 26.4432 21.36C26.048 21.376 25.784 21.2096 25.7056 20.9056C25.6795 20.8123 25.6759 20.7142 25.695 20.6192C25.714 20.5243 25.7553 20.4352 25.8153 20.3592C25.8754 20.2833 25.9526 20.2226 26.0405 20.1821C26.1285 20.1416 26.2248 20.1225 26.3216 20.1264C27.2288 20.0864 28.136 20.0512 29.0416 20.016C29.4848 19.9984 29.9296 19.9984 30.3712 19.9584C30.7632 19.9216 31.064 20.0304 31.272 20.3696L31.28 20.784Z" fill="white" stroke="white"/>
<path d="M25.0496 2.54715C25.0521 2.64899 25.0308 2.75002 24.9875 2.84222C24.9442 2.93442 24.88 3.01527 24.8 3.07835C23.5744 4.08955 22.3477 5.10288 21.12 6.11835C21.0585 6.17596 20.9859 6.22033 20.9067 6.2487C20.8274 6.27708 20.7431 6.28886 20.6591 6.28331C20.5751 6.27776 20.4931 6.255 20.4182 6.21643C20.3434 6.17787 20.2773 6.12434 20.224 6.05915C20.1685 5.99525 20.127 5.92042 20.1023 5.8395C20.0776 5.75858 20.0701 5.67337 20.0803 5.58937C20.0906 5.50537 20.1183 5.42447 20.1618 5.35187C20.2053 5.27928 20.2635 5.21662 20.3328 5.16795C21.552 4.15035 22.7792 3.14075 24.0032 2.12795C24.0947 2.04326 24.21 1.98855 24.3335 1.97111C24.457 1.95367 24.5829 1.97433 24.6944 2.03035C24.7955 2.07535 24.8822 2.14744 24.9448 2.23865C25.0075 2.32986 25.0438 2.43662 25.0496 2.54715Z" fill="white" stroke="white"/>
<path d="M23.1872 9.59036C22.8224 9.59036 22.6192 9.44316 22.5264 9.17276C22.4823 9.0553 22.4773 8.92675 22.5122 8.80625C22.5471 8.68574 22.62 8.57972 22.72 8.50396C22.7975 8.4431 22.8806 8.38954 22.968 8.34396L26.56 6.28156C26.6274 6.23987 26.6974 6.20246 26.7696 6.16956C26.9063 6.10916 27.0604 6.1007 27.203 6.14576C27.3455 6.19083 27.4668 6.28632 27.544 6.41436C27.6272 6.54518 27.657 6.70296 27.6272 6.85511C27.5974 7.00726 27.5103 7.14216 27.384 7.23196C27.2356 7.32983 27.0823 7.42008 26.9248 7.50236L23.5536 9.43996C23.4448 9.51795 23.3193 9.56945 23.1872 9.59036Z" fill="white" stroke="white"/>
<path d="M29.904 11.2464C29.903 11.3721 29.8628 11.4943 29.7891 11.5961C29.7154 11.6979 29.6119 11.7742 29.4928 11.8144C28.1136 12.2944 26.7344 12.7744 25.3504 13.2544C25.1959 13.3081 25.0265 13.2982 24.8793 13.2269C24.7321 13.1557 24.6193 13.0289 24.5656 12.8744C24.5119 12.7199 24.5218 12.5505 24.5931 12.4033C24.6643 12.2561 24.7911 12.1433 24.9456 12.0896C26.3232 11.6096 27.7024 11.12 29.088 10.6496C29.1819 10.6177 29.2821 10.6089 29.3801 10.624C29.4781 10.639 29.5711 10.6774 29.6511 10.7359C29.7311 10.7945 29.7959 10.8714 29.8399 10.9603C29.8839 11.0491 29.9059 11.1473 29.904 11.2464Z" fill="white" stroke="white"/>
<path d="M29.9648 15.3808C30.4448 15.3584 30.7152 15.5648 30.7536 15.9056C30.7664 15.9892 30.7616 16.0745 30.7395 16.1561C30.7173 16.2377 30.6783 16.3138 30.6249 16.3794C30.5715 16.445 30.505 16.4986 30.4296 16.5369C30.3542 16.5752 30.2716 16.5972 30.1872 16.6016C29.0832 16.7616 27.9776 16.8976 26.8736 17.0448C26.6384 17.0752 26.4048 17.1152 26.168 17.1312C26.014 17.1454 25.8604 17.0996 25.7394 17.0033C25.6183 16.907 25.5392 16.7677 25.5184 16.6144C25.5028 16.5362 25.5033 16.4557 25.5198 16.3778C25.5363 16.2998 25.5685 16.226 25.6145 16.1609C25.6604 16.0958 25.7192 16.0407 25.7871 15.999C25.855 15.9573 25.9307 15.9299 26.0096 15.9184C27.36 15.7264 28.7072 15.5504 29.9648 15.3808Z" fill="white" stroke="white"/>
</g>
<defs>
<clipPath id="clip0_1_206">
<rect width="32" height="30" fill="white" transform="translate(0 1)"/>
</clipPath>
</defs>
</svg>
