<svg width="86" height="88" viewBox="0 0 86 88" fill="none" xmlns="http://www.w3.org/2000/svg">
<g clip-path="url(#clip0_1_234)">
<path d="M2.42525 4.28042C3.76468 4.28042 4.8505 3.32221 4.8505 2.14021C4.8505 0.958205 3.76468 0 2.42525 0C1.08582 0 0 0.958205 0 2.14021C0 3.32221 1.08582 4.28042 2.42525 4.28042Z" fill="#9AAEBB"/>
<path d="M2.42525 20.8971C3.76468 20.8971 4.8505 19.9389 4.8505 18.7569C4.8505 17.5749 3.76468 16.6167 2.42525 16.6167C1.08582 16.6167 0 17.5749 0 18.7569C0 19.9389 1.08582 20.8971 2.42525 20.8971Z" fill="#9AAEBB"/>
<path d="M2.42525 37.5142C3.76468 37.5142 4.8505 36.556 4.8505 35.374C4.8505 34.192 3.76468 33.2338 2.42525 33.2338C1.08582 33.2338 0 34.192 0 35.374C0 36.556 1.08582 37.5142 2.42525 37.5142Z" fill="#9AAEBB"/>
<path d="M2.42525 54.2567C3.76468 54.2567 4.8505 53.2985 4.8505 52.1165C4.8505 50.9345 3.76468 49.9763 2.42525 49.9763C1.08582 49.9763 0 50.9345 0 52.1165C0 53.2985 1.08582 54.2567 2.42525 54.2567Z" fill="#9AAEBB"/>
<path d="M2.42525 70.8733C3.76468 70.8733 4.8505 69.9151 4.8505 68.7331C4.8505 67.5511 3.76468 66.5929 2.42525 66.5929C1.08582 66.5929 0 67.5511 0 68.7331C0 69.9151 1.08582 70.8733 2.42525 70.8733Z" fill="#9AAEBB"/>
<path d="M2.42525 83.2096C1.14129 83.2096 0 84.2168 0 85.3498C0 86.4829 1.14129 87.49 2.42525 87.49C3.70921 87.49 4.8505 86.4829 4.8505 85.3498C4.8505 84.2168 3.85187 83.2096 2.42525 83.2096Z" fill="#9AAEBB"/>
<path d="M19.1167 0C17.8327 0 16.6914 1.00716 16.6914 2.14021C16.6914 3.27326 17.8327 4.28042 19.1167 4.28042C20.4006 4.28042 21.5419 3.27326 21.5419 2.14021C21.5419 1.00716 20.5433 0 19.1167 0Z" fill="#9AAEBB"/>
<path d="M19.1168 16.6166C17.8328 16.6166 16.6915 17.6237 16.6915 18.7568C16.6915 19.8898 17.8328 20.897 19.1168 20.897C20.4007 20.897 21.542 19.8898 21.542 18.7568C21.542 17.6237 20.5434 16.6166 19.1168 16.6166Z" fill="#9AAEBB"/>
<path d="M19.1168 33.2336C17.8328 33.2336 16.6915 34.2408 16.6915 35.3739C16.6915 36.5069 17.8328 37.5141 19.1168 37.5141C20.4007 37.5141 21.542 36.5069 21.542 35.3739C21.542 34.2408 20.5434 33.2336 19.1168 33.2336Z" fill="#9AAEBB"/>
<path d="M19.1168 49.9763C17.8328 49.9763 16.6915 50.9835 16.6915 52.1165C16.6915 53.2496 17.8328 54.2567 19.1168 54.2567C20.4007 54.2567 21.542 53.2496 21.542 52.1165C21.542 50.8576 20.5434 49.9763 19.1168 49.9763Z" fill="#9AAEBB"/>
<path d="M19.1167 66.5929C17.8327 66.5929 16.6914 67.6001 16.6914 68.7331C16.6914 69.8662 17.8327 70.8733 19.1167 70.8733C20.4006 70.8733 21.5419 69.8662 21.5419 68.7331C21.5419 67.4742 20.5433 66.5929 19.1167 66.5929Z" fill="#9AAEBB"/>
<path d="M19.1168 83.2096C17.8328 83.2096 16.6915 84.2168 16.6915 85.3498C16.6915 86.4829 17.8328 87.49 19.1168 87.49C20.4007 87.49 21.542 86.4829 21.542 85.3498C21.542 84.2168 20.5434 83.2096 19.1168 83.2096Z" fill="#9AAEBB"/>
<path d="M35.8083 0C34.5244 0 33.3831 1.00716 33.3831 2.14021C33.3831 3.27326 34.5244 4.28042 35.8083 4.28042C37.0923 4.28042 38.2336 3.27326 38.2336 2.14021C38.2336 1.00716 37.2349 0 35.8083 0Z" fill="#9AAEBB"/>
<path d="M35.8078 16.6166C34.5238 16.6166 33.3825 17.6237 33.3825 18.7568C33.3825 19.8898 34.5238 20.897 35.8078 20.897C37.0917 20.897 38.233 19.8898 38.233 18.7568C38.233 17.6237 37.2344 16.6166 35.8078 16.6166Z" fill="#9AAEBB"/>
<path d="M35.8078 33.2336C34.5238 33.2336 33.3825 34.2408 33.3825 35.3739C33.3825 36.5069 34.5238 37.5141 35.8078 37.5141C37.0917 37.5141 38.233 36.5069 38.233 35.3739C38.233 34.2408 37.2344 33.2336 35.8078 33.2336Z" fill="#9AAEBB"/>
<path d="M35.8078 49.9763C34.5238 49.9763 33.3825 50.9835 33.3825 52.1165C33.3825 53.2496 34.5238 54.2567 35.8078 54.2567C37.0917 54.2567 38.233 53.2496 38.233 52.1165C38.233 50.8576 37.2344 49.9763 35.8078 49.9763Z" fill="#9AAEBB"/>
<path d="M35.8083 66.5929C34.5244 66.5929 33.3831 67.6001 33.3831 68.7331C33.3831 69.8662 34.5244 70.8733 35.8083 70.8733C37.0923 70.8733 38.2336 69.8662 38.2336 68.7331C38.2336 67.4742 37.2349 66.5929 35.8083 66.5929Z" fill="#9AAEBB"/>
<path d="M35.8078 83.2096C34.5238 83.2096 33.3825 84.2168 33.3825 85.3498C33.3825 86.4829 34.5238 87.49 35.8078 87.49C37.0917 87.49 38.233 86.4829 38.233 85.3498C38.233 84.2168 37.2344 83.2096 35.8078 83.2096Z" fill="#9AAEBB"/>
</g>
<g clip-path="url(#clip1_1_234)">
<path d="M49.6267 4.28054C50.9661 4.28054 52.0519 3.32234 52.0519 2.14033C52.0519 0.958327 50.9661 0.00012207 49.6267 0.00012207C48.2872 0.00012207 47.2014 0.958327 47.2014 2.14033C47.2014 3.32234 48.2872 4.28054 49.6267 4.28054Z" fill="#9AAEBB"/>
<path d="M49.6267 20.8972C50.9661 20.8972 52.0519 19.939 52.0519 18.757C52.0519 17.575 50.9661 16.6168 49.6267 16.6168C48.2872 16.6168 47.2014 17.575 47.2014 18.757C47.2014 19.939 48.2872 20.8972 49.6267 20.8972Z" fill="#9AAEBB"/>
<path d="M49.6267 37.5143C50.9661 37.5143 52.0519 36.5561 52.0519 35.3741C52.0519 34.1921 50.9661 33.2339 49.6267 33.2339C48.2872 33.2339 47.2014 34.1921 47.2014 35.3741C47.2014 36.5561 48.2872 37.5143 49.6267 37.5143Z" fill="#9AAEBB"/>
<path d="M49.6267 54.2569C50.9661 54.2569 52.0519 53.2987 52.0519 52.1167C52.0519 50.9346 50.9661 49.9764 49.6267 49.9764C48.2872 49.9764 47.2014 50.9346 47.2014 52.1167C47.2014 53.2987 48.2872 54.2569 49.6267 54.2569Z" fill="#9AAEBB"/>
<path d="M49.6267 70.8734C50.9661 70.8734 52.0519 69.9152 52.0519 68.7332C52.0519 67.5512 50.9661 66.593 49.6267 66.593C48.2872 66.593 47.2014 67.5512 47.2014 68.7332C47.2014 69.9152 48.2872 70.8734 49.6267 70.8734Z" fill="#9AAEBB"/>
<path d="M49.6267 83.2097C48.3427 83.2097 47.2014 84.2169 47.2014 85.3499C47.2014 86.483 48.3427 87.4901 49.6267 87.4901C50.9106 87.4901 52.0519 86.483 52.0519 85.3499C52.0519 84.2169 51.0533 83.2097 49.6267 83.2097Z" fill="#9AAEBB"/>
<path d="M66.3181 0.00012207C65.0341 0.00012207 63.8928 1.00728 63.8928 2.14033C63.8928 3.27338 65.0341 4.28054 66.3181 4.28054C67.602 4.28054 68.7433 3.27338 68.7433 2.14033C68.7433 1.00728 67.7447 0.00012207 66.3181 0.00012207Z" fill="#9AAEBB"/>
<path d="M66.3182 16.6167C65.0342 16.6167 63.8929 17.6239 63.8929 18.7569C63.8929 19.89 65.0342 20.8971 66.3182 20.8971C67.6021 20.8971 68.7434 19.89 68.7434 18.7569C68.7434 17.6239 67.7448 16.6167 66.3182 16.6167Z" fill="#9AAEBB"/>
<path d="M66.3182 33.2338C65.0342 33.2338 63.8929 34.2409 63.8929 35.374C63.8929 36.507 65.0342 37.5142 66.3182 37.5142C67.6021 37.5142 68.7434 36.507 68.7434 35.374C68.7434 34.2409 67.7448 33.2338 66.3182 33.2338Z" fill="#9AAEBB"/>
<path d="M66.3182 49.9764C65.0342 49.9764 63.8929 50.9836 63.8929 52.1167C63.8929 53.2497 65.0342 54.2569 66.3182 54.2569C67.6021 54.2569 68.7434 53.2497 68.7434 52.1167C68.7434 50.8577 67.7448 49.9764 66.3182 49.9764Z" fill="#9AAEBB"/>
<path d="M66.3181 66.593C65.0341 66.593 63.8928 67.6002 63.8928 68.7332C63.8928 69.8663 65.0341 70.8734 66.3181 70.8734C67.602 70.8734 68.7433 69.8663 68.7433 68.7332C68.7433 67.4743 67.7447 66.593 66.3181 66.593Z" fill="#9AAEBB"/>
<path d="M66.3182 83.2097C65.0342 83.2097 63.8929 84.2169 63.8929 85.3499C63.8929 86.483 65.0342 87.4901 66.3182 87.4901C67.6021 87.4901 68.7434 86.483 68.7434 85.3499C68.7434 84.2169 67.7448 83.2097 66.3182 83.2097Z" fill="#9AAEBB"/>
<path d="M83.0097 0.00012207C81.7258 0.00012207 80.5845 1.00728 80.5845 2.14033C80.5845 3.27338 81.7258 4.28054 83.0097 4.28054C84.2937 4.28054 85.435 3.27338 85.435 2.14033C85.435 1.00728 84.4363 0.00012207 83.0097 0.00012207Z" fill="#9AAEBB"/>
<path d="M83.0092 16.6167C81.7252 16.6167 80.5839 17.6239 80.5839 18.7569C80.5839 19.89 81.7252 20.8971 83.0092 20.8971C84.2931 20.8971 85.4344 19.89 85.4344 18.7569C85.4344 17.6239 84.4358 16.6167 83.0092 16.6167Z" fill="#9AAEBB"/>
<path d="M83.0092 33.2338C81.7252 33.2338 80.5839 34.2409 80.5839 35.374C80.5839 36.507 81.7252 37.5142 83.0092 37.5142C84.2931 37.5142 85.4344 36.507 85.4344 35.374C85.4344 34.2409 84.4358 33.2338 83.0092 33.2338Z" fill="#9AAEBB"/>
<path d="M83.0092 49.9764C81.7252 49.9764 80.5839 50.9836 80.5839 52.1167C80.5839 53.2497 81.7252 54.2569 83.0092 54.2569C84.2931 54.2569 85.4344 53.2497 85.4344 52.1167C85.4344 50.8577 84.4358 49.9764 83.0092 49.9764Z" fill="#9AAEBB"/>
<path d="M83.0097 66.593C81.7258 66.593 80.5845 67.6002 80.5845 68.7332C80.5845 69.8663 81.7258 70.8734 83.0097 70.8734C84.2937 70.8734 85.435 69.8663 85.435 68.7332C85.435 67.4743 84.4363 66.593 83.0097 66.593Z" fill="#9AAEBB"/>
<path d="M83.0092 83.2097C81.7252 83.2097 80.5839 84.2169 80.5839 85.3499C80.5839 86.483 81.7252 87.4901 83.0092 87.4901C84.2931 87.4901 85.4344 86.483 85.4344 85.3499C85.4344 84.2169 84.4358 83.2097 83.0092 83.2097Z" fill="#9AAEBB"/>
</g>
<defs>
<clipPath id="clip0_1_234">
<rect width="38.2334" height="87.4898" fill="white"/>
</clipPath>
<clipPath id="clip1_1_234">
<rect width="38.2334" height="87.4898" fill="white" transform="translate(47.2014 0.00012207)"/>
</clipPath>
</defs>
</svg>
