<svg width="24" height="32" viewBox="0 0 24 32" fill="none" xmlns="http://www.w3.org/2000/svg">
<path d="M11.5203 1.70667L11.5203 0.706665H11.5203V1.70667ZM21.7605 11.9469L22.7605 11.9469V11.9469H21.7605ZM13.3093 29.8258L13.7565 30.7202L13.7568 30.7201L13.3093 29.8258ZM9.7312 29.8258L9.28377 30.7201L9.28402 30.7202L9.7312 29.8258ZM1.28003 11.9469H0.280029V11.9469L1.28003 11.9469ZM9.21232 29.5662L9.65975 28.6719L9.21232 29.5662ZM8.27595 28.9492L9.10933 28.3965L8.27595 28.9492ZM14.973 27.7784L13.9751 27.7142L14.973 27.7784ZM13.8282 29.5662L13.3808 28.6719L13.8282 29.5662ZM14.7646 28.9492L13.9312 28.3965L14.7646 28.9492ZM6.47456 21.2553L5.55916 21.6579L6.47456 21.2553ZM5.72293 20.387L5.15608 21.2108L5.72293 20.387ZM6.22265 20.7771L6.99312 20.1396L6.22265 20.7771ZM17.3159 20.3879L17.8826 21.2118L17.3159 20.3879ZM16.564 21.2566L17.4794 21.659L16.564 21.2566ZM16.8159 20.7781L16.0455 20.1407L16.8159 20.7781ZM11.5203 1.70667L11.5202 2.70667C16.6233 2.70678 20.7605 6.84389 20.7605 11.9469H21.7605H22.7605C22.7605 5.73927 17.7278 0.706804 11.5203 0.706665L11.5203 1.70667ZM21.7605 11.9469L20.7605 11.9469C20.7604 15.1071 19.1736 17.8964 16.7492 19.564L17.3159 20.3879L17.8826 21.2118C20.8258 19.1874 22.7604 15.7938 22.7605 11.9469L21.7605 11.9469ZM16.564 21.2566L15.6485 20.8541C14.695 23.0234 14.1274 25.345 13.9751 27.7142L14.973 27.7784L15.9709 27.8425C16.1082 25.7074 16.6198 23.6146 17.4794 21.659L16.564 21.2566ZM13.8282 29.5662L13.3808 28.6719L12.8619 28.9315L13.3093 29.8258L13.7568 30.7201L14.2756 30.4605L13.8282 29.5662ZM13.3093 29.8258L12.8621 28.9314C12.0176 29.3536 11.023 29.3536 10.1784 28.9314L9.7312 29.8258L9.28402 30.7202C10.6916 31.424 12.3489 31.424 13.7565 30.7202L13.3093 29.8258ZM9.7312 29.8258L10.1786 28.9315L9.65975 28.6719L9.21232 29.5662L8.76489 30.4605L9.28377 30.7201L9.7312 29.8258ZM8.06745 27.7784L9.06538 27.7141C8.91276 25.3442 8.344 23.0222 7.38996 20.8528L6.47456 21.2553L5.55916 21.6579C6.41944 23.6141 6.93199 25.7072 7.06952 27.8427L8.06745 27.7784ZM5.72293 20.387L6.28977 19.5632C3.86607 17.8955 2.2801 15.1067 2.28003 11.9469L1.28003 11.9469L0.280029 11.9469C0.280116 15.7932 2.21369 19.1863 5.15608 21.2108L5.72293 20.387ZM1.28003 11.9469H2.28003C2.28003 6.84379 6.41715 2.70667 11.5203 2.70667V1.70667V0.706665C5.31258 0.706665 0.280029 5.73922 0.280029 11.9469H1.28003ZM9.21232 29.5662L9.65975 28.6719C9.37988 28.5319 9.23232 28.4569 9.13165 28.3941C9.04643 28.3409 9.07401 28.3433 9.10933 28.3965L8.27595 28.9492L7.44258 29.5019C7.62531 29.7775 7.85809 29.9568 8.07271 30.0907C8.27188 30.215 8.51879 30.3374 8.76489 30.4605L9.21232 29.5662ZM8.06745 27.7784L7.06952 27.8427C7.08872 28.1408 7.10641 28.4298 7.14333 28.6697C7.18204 28.9212 7.25454 29.2184 7.44258 29.5019L8.27595 28.9492L9.10933 28.3965C9.14996 28.4578 9.13856 28.4857 9.12005 28.3655C9.09976 28.2336 9.08691 28.0484 9.06538 27.7141L8.06745 27.7784ZM14.973 27.7784L13.9751 27.7142C13.9536 28.0485 13.9408 28.2336 13.9205 28.3655C13.902 28.4857 13.8906 28.4578 13.9312 28.3965L14.7646 28.9492L15.598 29.5018C15.786 29.2183 15.8585 28.9211 15.8972 28.6696C15.9341 28.4297 15.9518 28.1406 15.9709 27.8425L14.973 27.7784ZM13.8282 29.5662L14.2756 30.4605C14.5217 30.3374 14.7687 30.215 14.9679 30.0907C15.1825 29.9567 15.4153 29.7774 15.598 29.5018L14.7646 28.9492L13.9312 28.3965C13.9665 28.3433 13.9941 28.3409 13.9089 28.3941C13.8082 28.4569 13.6607 28.5319 13.3808 28.6719L13.8282 29.5662ZM6.47456 21.2553L7.38996 20.8528C7.30148 20.6516 7.19049 20.3782 6.99312 20.1396L6.22265 20.7771L5.45218 21.4146C5.43566 21.3946 5.43326 21.3846 5.44992 21.4173C5.45939 21.4359 5.47219 21.4627 5.49103 21.5042C5.51 21.5461 5.53134 21.5946 5.55916 21.6579L6.47456 21.2553ZM5.72293 20.387L5.15608 21.2108C5.30089 21.3105 5.38056 21.3656 5.43677 21.4084C5.48888 21.448 5.47752 21.4452 5.45218 21.4146L6.22265 20.7771L6.99312 20.1396C6.7929 19.8976 6.50648 19.7123 6.28977 19.5632L5.72293 20.387ZM17.3159 20.3879L16.7492 19.564C16.5324 19.7132 16.2458 19.8985 16.0455 20.1407L16.8159 20.7781L17.5864 21.4156C17.561 21.4462 17.5497 21.4491 17.6018 21.4094C17.658 21.3666 17.7378 21.3115 17.8826 21.2118L17.3159 20.3879ZM16.564 21.2566L17.4794 21.659C17.5072 21.5957 17.5286 21.5472 17.5476 21.5053C17.5664 21.4637 17.5792 21.4369 17.5887 21.4183C17.6053 21.3856 17.6029 21.3956 17.5864 21.4156L16.8159 20.7781L16.0455 20.1407C15.848 20.3793 15.737 20.6529 15.6485 20.8541L16.564 21.2566Z" fill="#1E1E1E"/>
<path d="M16.6268 22.1866C13.5359 24.2527 9.50465 24.2527 6.41376 22.1866" stroke="#1E1E1E" stroke-width="2"/>
</svg>
