<svg width="32" height="32" viewBox="0 0 32 32" fill="none" xmlns="http://www.w3.org/2000/svg">
<path d="M12 23.9999H6.66667C5.19391 23.9999 4 22.806 4 21.3333V7.99992C4 6.52716 5.19391 5.33325 6.66667 5.33325H22.6667C24.1394 5.33325 25.3333 6.52716 25.3333 7.99992V10.6666" stroke="#33363F" stroke-width="2.66667"/>
<path d="M5.33337 10.6667H26.6667" stroke="#33363F" stroke-width="2.66667"/>
<path d="M5.33337 17.3333H12" stroke="#33363F" stroke-width="2.66667"/>
<path d="M15.3877 22.6297C14.9394 21.8236 14.9394 20.8431 15.3877 20.037L16.2873 18.42L17.2379 16.8325C17.7117 16.0412 18.5609 15.5509 19.4832 15.5362L21.3333 15.5067L23.1834 15.5362C24.1057 15.5509 24.9549 16.0412 25.4287 16.8325L26.3793 18.42L27.2788 20.037C27.7272 20.8431 27.7272 21.8236 27.2788 22.6297L26.3793 24.2467L25.4287 25.8342C24.9549 26.6255 24.1057 27.1158 23.1834 27.1305L21.3333 27.16L19.4832 27.1305C18.5609 27.1158 17.7117 26.6255 17.2379 25.8342L16.2873 24.2467L15.3877 22.6297Z" stroke="#33363F" stroke-width="2.66667"/>
<circle cx="21.3333" cy="21.3333" r="1.33333" fill="#33363F"/>
</svg>
