<svg width="23" height="26" viewBox="0 0 23 26" fill="none" xmlns="http://www.w3.org/2000/svg">
<path d="M0.500122 13.4513C0.559322 13.1425 0.599322 12.8305 0.680922 12.5281C0.903322 11.7073 1.40732 11.1457 2.14172 10.6833C3.38492 9.90728 4.80252 9.52648 6.07612 8.81128C8.77649 7.31262 11.068 5.1744 12.7497 2.58408C13.0665 2.07105 13.4143 1.57786 13.7913 1.10728C14.3401 0.454482 14.8201 0.344082 15.5993 0.699282C16.2921 1.01928 16.8121 1.54408 17.2841 2.12168C18.4745 3.58088 19.3305 5.23848 20.0729 6.95688C20.9977 9.02312 21.6522 11.2 22.0201 13.4337C22.1961 14.5921 22.2793 15.7521 21.9929 16.9089C21.917 17.2265 21.7935 17.5307 21.6265 17.8113C21.2073 18.5073 20.5529 18.7713 19.7529 18.6001C18.4969 18.3329 17.2841 17.8993 16.0217 17.6545C14.4167 17.3511 12.7744 17.2971 11.1529 17.4945C11.0505 17.5057 10.9753 17.5201 10.9257 17.6369C10.8125 17.8605 10.7758 18.1151 10.8212 18.3616C10.8665 18.6082 10.9915 18.833 11.1769 19.0017C11.2836 19.0988 11.3676 19.2183 11.4229 19.3516C11.4782 19.4849 11.5035 19.6287 11.4969 19.7729C11.4969 19.9217 11.4809 20.0689 11.4585 20.2161C11.3673 20.8385 11.3769 20.8561 11.9385 21.1217C12.6889 21.4769 12.8985 22.0257 12.4697 22.7313C11.9481 23.5761 11.2361 24.2401 10.2633 24.5665C10.2371 24.5789 10.2129 24.5951 10.1913 24.6145H9.75772C9.11772 24.4257 8.73212 23.9745 8.44892 23.4097C8.34172 23.1985 8.24412 22.9825 8.15452 22.7697C7.62771 21.4487 7.22647 20.0811 6.95612 18.6849C6.90972 18.4545 6.83932 18.3905 6.58972 18.4689C6.11608 18.6281 5.63164 18.7532 5.14012 18.8433C4.62577 18.9458 4.09409 18.9204 3.59189 18.7691C3.08968 18.6179 2.63235 18.3456 2.26012 17.9761C1.47772 17.2449 1.03292 16.3313 0.740122 15.3281C0.618522 14.9089 0.596122 14.4737 0.501722 14.0481L0.500122 13.4513ZM13.2041 3.74728C13.1193 3.78568 13.0825 3.88168 13.0281 3.96008C12.0116 5.40021 10.7976 6.69018 9.42172 7.79208C8.40447 8.57674 7.3264 9.27923 6.19772 9.89288C5.07772 10.5249 3.82172 10.8529 2.71932 11.5457C2.16252 11.8913 1.75132 12.2753 1.63772 12.8993C1.47868 13.6724 1.51635 14.4731 1.74726 15.2279C1.97818 15.9827 2.39494 16.6675 2.95932 17.2193C3.18325 17.4675 3.46682 17.6546 3.7832 17.7626C4.09958 17.8707 4.43831 17.8963 4.76732 17.8369C5.18701 17.7884 5.60183 17.7043 6.00732 17.5857C6.31452 17.4753 6.63132 17.3937 6.94492 17.3073C7.47612 17.1585 7.67772 17.2785 7.79772 17.8081C8.03292 18.8465 8.24092 19.8881 8.57212 20.9089C8.82652 21.6865 9.05212 22.4769 9.49532 23.1809C9.74652 23.5905 10.0185 23.6449 10.4137 23.3761C10.7472 23.1445 11.0537 22.8761 11.3273 22.5761C11.7049 22.1729 11.6969 22.1217 11.1913 21.9025C10.9258 21.8105 10.7007 21.6289 10.5547 21.3888C10.4087 21.1488 10.3509 20.8653 10.3913 20.5873C10.4073 20.3905 10.4265 20.1937 10.4553 19.9985C10.4752 19.918 10.4706 19.8335 10.4421 19.7556C10.4136 19.6778 10.3625 19.6103 10.2953 19.5617C10.1487 19.4435 10.0288 19.2955 9.94354 19.1275C9.85832 18.9596 9.8097 18.7754 9.80092 18.5873C9.76595 17.9928 9.87576 17.3988 10.1209 16.8561C10.1555 16.7675 10.2145 16.6905 10.2909 16.6339C10.3673 16.5773 10.4581 16.5434 10.5529 16.5361C12.395 16.2623 14.2696 16.2931 16.1017 16.6273C16.7417 16.7489 17.3641 16.9217 18.0089 17.0785C15.0169 13.1313 13.5273 8.65128 13.2041 3.74728ZM14.2537 3.85128C14.2649 5.31368 14.5369 6.73128 14.8793 8.15208C14.9305 8.36328 15.0297 8.34568 15.1993 8.31208C16.7401 8.04488 18.0121 8.84168 18.2825 10.2833C18.5145 11.5201 18.1081 12.5457 17.1017 13.3105C16.9321 13.4385 16.8985 13.5185 17.0057 13.7025C17.3017 14.2177 17.5929 14.7329 17.9273 15.2241C18.4739 16.0635 19.1408 16.8182 19.9065 17.4641C20.2265 17.7233 20.4969 17.6801 20.7225 17.3345C20.875 17.0894 20.9808 16.8181 21.0345 16.5345C21.2505 15.5201 21.1625 14.5057 21.0025 13.4945C20.6377 11.1953 19.8969 9.01448 18.9449 6.89768C18.2761 5.40648 17.5049 3.96808 16.4601 2.70248C16.14 2.28542 15.743 1.93349 15.2905 1.66568C14.8361 1.41928 14.6697 1.48648 14.4905 1.97288C14.3018 2.58024 14.2217 3.2161 14.2537 3.85128Z" fill="white" stroke="white"/>
</svg>
