<svg width="85" height="94" viewBox="0 0 85 94" fill="none" xmlns="http://www.w3.org/2000/svg">
<path d="M64.92 64.4766C64.4063 64.4117 63.9316 64.3207 63.4503 64.3012C61.8701 64.2493 61.8701 64.2558 61.8701 62.6257C61.8701 49.2342 61.8701 35.8427 61.8701 22.4512C61.8701 20.438 61.5189 20.0873 59.5095 20.0873C56.271 20.0873 53.0324 20.0938 49.7939 20.0873C46.744 20.0743 44.9036 18.2623 44.8906 15.2295C44.8776 11.9238 44.8906 8.61814 44.8841 5.31898C44.8841 3.53302 44.4744 3.13036 42.6601 3.13036C30.1937 3.13036 17.7208 3.13036 5.25447 3.13036C3.51165 3.13036 3.11496 3.53302 3.11496 5.28002C3.11496 32.654 3.11496 60.0279 3.11496 87.4019C3.11496 89.2138 3.49865 89.5905 5.3195 89.5905C23.4305 89.5905 41.5415 89.5905 59.6525 89.5905C61.4994 89.5905 61.8636 89.2333 61.8701 87.4214C61.8701 85.7198 61.8701 84.0248 61.8701 81.9985C62.9951 83.135 64.3803 83.9274 64.7574 85.0574C65.3102 86.7135 65.2907 88.6293 64.3933 90.3179C63.6129 91.7921 62.3188 92.5195 60.6865 92.6753C60.3094 92.7143 59.9192 92.6948 59.5355 92.6948C41.496 92.6948 23.4565 92.6948 5.41054 92.6948C1.72331 92.6948 0 90.9608 0 87.2525C0.0130061 59.9825 0.0130061 32.7124 0.0130061 5.44238C0.0130061 1.73407 1.72981 0.0260349 5.44306 0.0195405C18.2606 0.0195405 31.0781 0.0325293 43.8956 5.72799e-05C45.6124 -0.00643713 46.9781 0.539094 48.1812 1.75355C53.3056 6.91661 58.4625 12.0472 63.6194 17.1778C64.5103 18.061 64.9721 19.1131 64.9721 20.3471C64.9786 34.888 64.9786 49.4225 64.9721 63.9635C64.9786 64.1389 64.9395 64.3077 64.92 64.4766Z" fill="#1E1E1E"/>
<path d="M37.3861 24.6918C45.9377 25.1009 52.6358 28.9911 56.5246 36.8818C60.3744 44.7011 59.451 52.332 54.3136 59.3784C53.6893 60.2357 53.7088 60.6643 54.4632 61.3787C56.5572 63.366 58.5731 65.4377 60.6086 67.49C61.0052 67.8861 61.2654 68.1069 61.8962 67.7303C63.2098 66.9509 64.7575 67.3016 65.9736 68.5096C69.1341 71.6529 72.2815 74.8027 75.429 77.9525C77.8677 80.3879 80.3063 82.8168 82.7385 85.2587C84.4358 86.9602 84.4358 88.5319 82.7645 90.2334C82.2507 90.7529 81.737 91.2725 81.2102 91.7856C79.539 93.4157 77.9392 93.4222 76.2939 91.7921C73.9983 89.5125 71.7093 87.22 69.4202 84.934C66.1427 81.6608 62.8716 78.3941 59.5941 75.1209C57.9683 73.4908 57.8252 72.7245 58.8592 70.6138C59.0608 70.1981 58.8527 70.0488 58.6381 69.8344C56.3751 67.5744 54.086 65.3338 51.8554 63.0348C51.2376 62.3983 50.9645 62.9374 50.5938 63.2296C42.7837 69.3733 32.2747 69.5877 24.3215 63.7557C17.2136 58.5407 13.9556 49.4615 16.1602 41.0122C18.3972 32.4266 25.7392 25.9582 34.4533 24.9061C35.3507 24.7957 36.2611 24.7697 37.3861 24.6918ZM55.7118 46.3961C55.7508 36.2583 47.3813 27.8546 37.2106 27.8091C27.0463 27.7636 18.6248 36.1154 18.5858 46.2662C18.5533 56.4884 26.9162 64.8987 37.126 64.9052C47.2903 64.9182 55.6727 56.5729 55.7118 46.3961Z" fill="#E22A31"/>
<path d="M32.4309 77.2511C25.0824 77.2511 17.734 77.2316 10.3855 77.2705C9.50109 77.277 9.27999 77.0302 9.2995 76.1665C9.35152 74.1402 9.306 74.1402 11.335 74.1402C25.7197 74.1402 40.1045 74.1532 54.4893 74.1143C55.5232 74.1143 55.7769 74.4065 55.7378 75.3937C55.6598 77.2446 55.7183 77.2446 53.852 77.2446C46.7116 77.2511 39.5712 77.2511 32.4309 77.2511Z" fill="#1E1E1E"/>
<path d="M25.5245 12.3654C20.5107 12.3654 15.4903 12.346 10.4764 12.3849C9.59853 12.3914 9.26037 12.2291 9.29939 11.2614C9.37743 9.28059 9.3124 9.28059 11.2958 9.28059C21.0829 9.28059 30.87 9.29358 40.6571 9.26111C41.5741 9.26111 41.8472 9.47542 41.8082 10.4106C41.7366 12.3719 41.7887 12.3719 39.8378 12.3719C35.0645 12.3654 30.2913 12.3654 25.5245 12.3654Z" fill="#1E1E1E"/>
<path d="M25.6023 21.6654C20.5234 21.6654 15.4446 21.6459 10.3657 21.6849C9.55279 21.6914 9.28617 21.4771 9.30568 20.6393C9.34469 18.574 9.29917 18.574 11.3932 18.574C21.1673 18.574 30.9413 18.587 40.7154 18.5546C41.5738 18.5546 41.8405 18.7494 41.8145 19.6326C41.7494 21.6654 41.8015 21.6654 39.7985 21.6654C35.0643 21.6654 30.3301 21.6654 25.6023 21.6654Z" fill="#1E1E1E"/>
<path d="M24.7637 67.9966C19.8279 67.9966 14.8921 67.9966 9.96275 68.0031C9.53355 68.0031 9.31895 67.8537 9.32545 67.3991C9.33846 66.7757 9.34496 66.1457 9.32545 65.5222C9.31244 65.0871 9.46852 64.9053 9.92373 64.9053C13.4029 64.9183 16.882 64.9118 20.3611 64.9118C20.6148 64.9118 20.8359 64.9507 21.0375 65.1261C22.2015 66.1522 23.5216 66.977 24.7637 67.9966Z" fill="#1E1E1E"/>
<path d="M20.6342 27.8091C19.6652 28.8742 18.8328 29.7769 18.0134 30.6991C17.7598 30.9848 17.4477 30.9134 17.142 30.9134C14.8139 30.9199 12.4923 30.9004 10.1642 30.9264C9.57245 30.9329 9.31233 30.8225 9.29932 30.1406C9.2603 27.8091 9.22779 27.8091 11.5364 27.8091C14.1766 27.8091 16.8104 27.8091 19.4506 27.8091C19.7888 27.8091 20.1204 27.8091 20.6342 27.8091Z" fill="#1E1E1E"/>
<path d="M15.5747 58.6965C13.6953 58.6965 11.8549 58.677 10.0145 58.7095C9.45528 58.716 9.33172 58.4952 9.30571 57.9821C9.20166 55.6117 9.20166 55.761 11.5102 55.5727C13.4937 55.4103 14.8463 55.852 15.3275 57.9302C15.3861 58.151 15.6397 58.3004 15.5747 58.6965Z" fill="#1E1E1E"/>
<path d="M14.1507 37.1156C13.8581 38.0378 13.585 38.8561 13.3379 39.6744C13.2338 40.0251 13.0192 40.181 12.655 40.168C12.2714 40.155 11.8942 40.168 11.5105 40.168C9.06535 40.168 9.06535 40.155 9.31896 37.7001C9.35798 37.3429 9.41651 37.1026 9.84571 37.1091C11.2569 37.1221 12.6745 37.1156 14.1507 37.1156Z" fill="#1E1E1E"/>
<path d="M11.0618 49.468C9.09791 49.429 9.34502 49.7602 9.32551 47.8249C9.31251 46.3636 9.32551 46.3636 11.0358 46.3636C12.5445 46.3636 12.512 46.3636 12.538 48.6822C12.5575 50.1109 11.478 49.1692 11.0618 49.468Z" fill="#1E1E1E"/>
<path d="M35.3051 32.9722C35.2986 33.732 34.7784 34.1541 34.0045 34.3815C31.826 35.0179 29.9271 36.1284 28.3273 37.7456C26.8056 39.2847 25.7391 41.0837 25.2189 43.1944C25.0953 43.6944 25.0108 44.227 24.5751 44.5907C24.0353 45.0453 23.424 45.1102 22.8322 44.7465C22.1039 44.2984 21.8113 43.6295 22.0454 42.7852C23.463 37.6287 26.5975 33.9723 31.5919 31.972C32.2032 31.7252 32.8339 31.5239 33.4777 31.381C34.4532 31.1602 35.2791 31.8616 35.3051 32.9722Z" fill="#1E1E1E"/>
</svg>
