<svg width="116" height="85" viewBox="0 0 116 85" fill="none" xmlns="http://www.w3.org/2000/svg">
<path d="M0.0115299 8.79756C2.28869 4.22594 5.96675 2.35809 11.0284 2.92305C12.8328 3.12483 14.6776 3.01529 16.4993 2.94035C18.1135 2.87117 19.1051 2.9807 19.1224 5.1541C19.1455 7.51774 17.8368 7.26408 16.3725 7.25831C13.8763 7.24678 11.3743 7.18913 8.87806 7.27561C5.78803 7.38514 4.45632 8.6592 4.45056 11.7319C4.4102 27.1071 4.40444 42.4765 4.45056 57.8517C4.46209 61.1723 5.91486 62.3311 9.73127 62.3311C28.2772 62.3426 46.8173 62.3369 65.3633 62.3369C71.1282 62.3369 76.9047 62.5732 82.6524 62.2504C86.169 62.0486 88.4635 63.3457 90.3544 66.2801C89.3744 66.8508 88.3194 66.6145 87.3336 66.6202C79.2626 66.6433 71.1916 66.724 63.1207 66.5799C60.6533 66.5338 59.9384 67.3351 60.1402 69.693C60.365 72.2699 60.365 74.8814 60.2728 77.4699C60.1978 79.4185 60.7801 80.2198 62.8613 80.1276C66.2165 79.9777 69.5832 80.1045 72.95 80.0872C74.4315 80.0814 75.8267 80.4389 75.8959 82.1165C75.9708 83.967 74.5757 84.3994 72.9384 84.3994C57.471 84.3821 41.9978 84.3879 26.5304 84.3936C24.9393 84.3936 23.5211 84.1227 23.5499 82.1568C23.5787 80.3524 24.9681 80.0987 26.4151 80.093C29.8741 80.0872 33.3331 80.018 36.792 80.116C38.5561 80.1622 39.4324 79.7932 39.2998 77.7524C39.1096 74.7834 39.1153 71.7914 39.2479 68.8225C39.3286 66.9546 38.5619 66.5972 36.8901 66.6087C28.2426 66.6721 19.5894 66.4415 10.9534 66.7125C5.90333 66.8681 2.19069 65.3635 0 60.6881C0.0115299 43.3874 0.0115299 26.0925 0.0115299 8.79756ZM55.9029 73.5786C55.8683 66.6318 55.8683 66.6318 48.8235 66.6375C47.8666 66.6375 46.9038 66.7125 45.9584 66.6202C44.2577 66.4646 43.4967 67.0526 43.6293 68.8686C43.7677 70.771 43.6927 72.6908 43.71 74.6047C43.7561 80.093 43.7561 80.093 49.3597 80.093C55.9318 80.0872 55.9318 80.0872 55.9029 73.5786Z" fill="black"/>
<path d="M68.3881 14.6855C76.9396 15.0947 83.6378 18.9848 87.5266 26.8756C91.3764 34.6948 90.453 42.3258 85.3155 49.3722C84.6913 50.2295 84.7108 50.6581 85.4651 51.3725C87.5591 53.3598 89.575 55.4315 91.6105 57.4837C92.0072 57.8799 92.2673 58.1007 92.8981 57.724C94.2117 56.9447 95.7595 57.2954 96.9755 58.5034C100.136 61.6467 103.283 64.7964 106.431 67.9462C108.87 70.3816 111.308 72.8106 113.74 75.2525C115.438 76.954 115.438 78.5256 113.766 80.2272C113.253 80.7467 112.739 81.2663 112.212 81.7793C110.541 83.4094 108.941 83.4159 107.296 81.7858C105 79.5063 102.711 77.2138 100.422 74.9277C97.1446 71.6545 93.8736 68.3879 90.596 65.1147C88.9703 63.4846 88.8272 62.7182 89.8612 60.6076C90.0628 60.1919 89.8547 60.0425 89.6401 59.8282C87.377 57.5682 85.0879 55.3276 82.8574 53.0286C82.2396 52.3921 81.9665 52.9311 81.5958 53.2234C73.7856 59.3671 63.2767 59.5814 55.3234 53.7494C48.2156 48.5344 44.9576 39.4552 47.1621 31.006C49.3992 22.4204 56.7411 15.952 65.4552 14.8999C66.3526 14.7895 67.2631 14.7635 68.3881 14.6855ZM86.7137 36.3899C86.7527 26.2521 78.3833 17.8483 68.2125 17.8029C58.0482 17.7574 49.6268 26.1092 49.5877 36.26C49.5552 46.4822 57.9182 54.8925 68.128 54.899C78.2922 54.9119 86.6747 46.5666 86.7137 36.3899Z" fill="#E22A31"/>
<path d="M66.3071 22.9657C66.3006 23.7255 65.7803 24.1477 65.0065 24.375C62.8279 25.0114 60.929 26.122 59.3293 27.7391C57.8076 29.2783 56.7411 31.0772 56.2208 33.1879C56.0973 33.688 56.0127 34.2205 55.577 34.5842C55.0373 35.0388 54.426 35.1038 53.8342 34.7401C53.1059 34.292 52.8132 33.623 53.0473 32.7788C54.465 27.6222 57.5995 23.9658 62.5938 21.9656C63.2051 21.7188 63.8359 21.5174 64.4797 21.3746C65.4552 21.1538 66.281 21.8551 66.3071 22.9657Z" fill="#1E1E1E"/>
<path d="M99.3538 59.1026C96.2522 57.0906 94.9032 55.021 94.9666 51.5735C95.1972 39.0059 95.0588 26.4267 95.0588 13.8591C95.0588 8.01337 94.1999 7.1371 88.4752 7.1371C68.8974 7.1371 49.3195 7.14286 29.7359 7.12557C28.237 7.12557 26.4614 7.77124 26.5133 4.94064C26.5594 2.34641 28.139 2.84796 29.586 2.84796C49.6424 2.83643 69.7045 2.83066 89.7608 2.84796C96.2637 2.85372 99.3307 5.8688 99.3422 12.291C99.3653 26.9744 99.348 41.6578 99.3538 56.3469C99.3538 57.1021 99.3538 57.8631 99.3538 59.1026Z" fill="black"/>
<path d="M26.467 52.6114C21.9646 52.6114 17.4564 52.5998 12.9539 52.6171C11.4089 52.6229 9.89274 52.4499 9.8178 50.5244C9.73709 48.3799 11.3801 48.1839 13.0116 48.1839C22.1202 48.1781 31.2231 48.1839 40.3318 48.1781C41.9748 48.1781 43.6697 48.4029 43.6409 50.4495C43.6121 52.4845 41.9287 52.6344 40.2799 52.6229C35.6679 52.5883 31.0675 52.6114 26.467 52.6114Z" fill="black"/>
<path d="M26.8476 38.8388C31.2578 38.8388 35.6737 38.8503 40.0839 38.833C41.8019 38.8272 43.6525 38.9022 43.6236 41.1448C43.5948 43.1683 41.8711 43.3239 40.2338 43.3239C31.2174 43.3124 22.201 43.3182 13.1846 43.3182C11.5819 43.3182 9.86394 43.2605 9.82359 41.139C9.77747 38.7754 11.6511 38.8445 13.3287 38.8445C17.8311 38.8388 22.3393 38.8388 26.8476 38.8388Z" fill="black"/>
<path d="M28.6462 11.0748C26.6227 14.6087 24.8413 17.7333 22.8351 21.2384C20.8462 17.7679 19.0706 14.6606 17.0586 11.1382C20.8981 11.7377 20.9269 9.57009 20.7136 7.09692C20.581 5.57497 20.7424 4.02996 20.6732 2.49647C20.6156 1.00335 20.6905 0.0175353 22.7256 0.000240335C24.8182 -0.0170546 25.1007 0.899576 25.0027 2.58871C24.9105 4.21443 25.1296 5.86322 24.9508 7.47741C24.6684 9.98517 25.2103 11.5936 28.6462 11.0748Z" fill="black"/>
<path d="M21.1459 34.0828C18.275 34.0828 15.404 34.1001 12.5273 34.0771C11.0342 34.0655 9.7947 33.5755 9.80623 31.8403C9.81776 30.1108 11.0457 29.6265 12.5504 29.6208C18.4883 29.615 24.4204 29.6092 30.3584 29.6265C31.7362 29.6323 32.9065 30.1165 32.9526 31.6846C33.0045 33.3622 31.8688 34.0483 30.3411 34.0655C27.2741 34.1059 24.2071 34.0828 21.1459 34.0828Z" fill="black"/>
</svg>
