<svg width="160" height="160" viewBox="0 0 160 160" fill="none" xmlns="http://www.w3.org/2000/svg">
<circle cx="80" cy="80" r="80" fill="#F8F8F8"/>
<g clip-path="url(#clip0_1_367)">
<path d="M36.5 86.4419C36.6834 85.4902 36.8073 84.5187 37.0601 83.5819C37.7491 81.0391 39.3154 79.2993 41.5856 77.8668C45.4369 75.443 49.8286 74.2583 53.7692 72.0427C62.2501 67.2743 69.1399 60.8851 74.4436 52.7512C75.4646 51.1898 76.4708 49.6136 77.6704 48.1762C79.3705 46.1489 80.8575 45.8069 83.2714 46.9122C85.4177 47.8936 87.0286 49.5293 88.4908 51.3187C92.1836 55.8392 94.8305 60.9744 97.1304 66.2979C99.916 72.7465 102.077 79.3984 103.138 86.3675C103.683 89.9512 103.941 93.5498 103.054 97.1335C102.811 98.1199 102.444 99.0567 101.919 99.9291C100.62 102.085 98.5926 102.903 96.1142 102.378C92.2232 101.55 88.4661 100.202 84.5602 99.4433C79.5539 98.4718 74.5278 98.3627 69.4769 98.9427C69.1597 98.9774 68.9267 99.0269 68.7731 99.3838C68.094 100.985 68.327 102.373 69.5513 103.612C70.2105 104.281 70.5674 105.059 70.5178 106.001C70.4931 106.457 70.4683 106.918 70.4038 107.374C70.1213 109.302 70.1461 109.367 71.871 110.18C74.1957 111.28 74.8748 112.98 73.5216 115.166C71.9008 117.783 69.7 119.84 66.6814 120.851C66.6021 120.876 66.5327 120.95 66.4633 121C66.032 121 65.6058 121 65.1745 121C63.2166 120.415 61.9973 119.022 61.1199 117.268C60.7928 116.613 60.4855 115.944 60.2079 115.265C58.5276 111.176 57.3826 106.933 56.4953 102.611C56.3516 101.897 56.1335 101.694 55.3603 101.941C53.8881 102.407 52.416 102.834 50.8645 103.101C47.3701 103.701 44.4456 102.779 41.9177 100.415C39.5186 98.1744 38.1407 95.3392 37.2336 92.2363C36.8519 90.9376 36.7875 89.5894 36.4951 88.2808C36.5 87.6662 36.5 87.0516 36.5 86.4419ZM75.8562 56.3597C75.5935 56.4737 75.4845 56.776 75.311 57.014C72.1288 61.4799 68.436 65.4651 64.1386 68.8853C61.0158 71.3735 57.6255 73.4355 54.1508 75.3934C50.6762 77.3513 46.7901 78.3922 43.375 80.5137C41.65 81.5843 40.3762 82.7739 40.0242 84.712C39.0973 89.8521 40.4802 94.3627 44.1185 98.11C45.6203 99.6564 47.5435 100.41 49.7195 100.023C51.0033 99.7952 52.3168 99.6911 53.561 99.245C54.5077 98.903 55.4891 98.6552 56.4606 98.3826C58.1112 97.9216 58.7308 98.2983 59.1026 99.934C59.8312 103.156 60.4756 106.398 61.5066 109.545C62.2947 111.954 63.0184 114.403 64.3616 116.584C65.1448 117.848 65.9825 118.021 67.2068 117.188C68.2477 116.479 69.1795 115.632 70.037 114.715C71.2068 113.466 71.182 113.307 69.6157 112.628C67.8016 111.845 67.0085 110.497 67.1572 108.559C67.2068 107.949 67.2662 107.339 67.3555 106.735C67.4397 106.179 67.3307 105.763 66.8499 105.381C65.8883 104.623 65.4273 103.582 65.3183 102.358C65.1497 100.474 65.6107 98.7147 66.3096 96.9947C66.5475 96.4048 67.0283 96.0975 67.6529 96.0133C73.3977 95.2301 79.1276 95.1954 84.8427 96.2958C86.8155 96.6775 88.7535 97.2128 90.7511 97.6936C81.4722 85.4208 76.8575 71.5718 75.8562 56.3597ZM79.1078 56.6819C79.1425 61.2123 79.9901 65.6237 81.0508 70.0055C81.2094 70.6597 81.5118 70.6052 82.0273 70.516C86.8006 69.6882 90.7412 72.1567 91.5789 76.6227C92.2976 80.4542 91.0386 83.6314 87.9208 86.0007C87.3954 86.4022 87.2913 86.6451 87.6234 87.2201C88.5404 88.8112 89.4425 90.4072 90.4785 91.929C92.2282 94.4965 94.191 96.8757 96.6149 98.8485C97.6013 99.6515 98.4439 99.5226 99.1428 98.452C99.6335 97.6985 99.921 96.8609 100.109 95.9885C100.778 92.8459 100.506 89.7034 100.01 86.5807C98.8801 79.4628 96.5851 72.697 93.6409 66.1442C91.564 61.5295 89.1947 57.0734 85.9381 53.1527C84.8972 51.8986 83.7721 50.7289 82.3148 49.9407C80.9071 49.1774 80.3916 49.3856 79.8612 50.8924C79.1871 52.7611 79.0979 54.714 79.1078 56.6819Z" fill="#E22A31"/>
<path d="M131.173 92.3206C130.583 93.2971 129.726 93.6242 128.581 93.649C124.457 93.7481 120.333 93.9464 116.204 94.105C114.979 94.1496 114.162 93.6391 113.919 92.6924C113.597 91.4334 114.444 90.3379 115.827 90.2785C118.637 90.1545 121.448 90.0504 124.258 89.9364C125.631 89.8819 127.014 89.8819 128.382 89.758C129.592 89.649 130.529 89.9811 131.173 91.0319C131.173 91.4631 131.173 91.8943 131.173 92.3206Z" fill="#E22A31"/>
<path d="M111.872 35.8241C111.867 36.5329 111.594 37.0583 111.093 37.4697C107.302 40.6073 103.51 43.7498 99.7078 46.8726C98.7809 47.6309 97.6161 47.5268 96.9271 46.6892C96.2183 45.8317 96.3224 44.7114 97.2642 43.9283C101.046 40.7758 104.843 37.6481 108.64 34.5106C109.289 33.9752 110.008 33.8513 110.776 34.2032C111.475 34.5254 111.807 35.1153 111.872 35.8241Z" fill="#E22A31"/>
<path d="M106.102 57.6435C104.972 57.6138 104.342 57.1875 104.055 56.3448C103.782 55.5468 103.985 54.8281 104.635 54.2729C104.863 54.0747 105.14 53.9309 105.408 53.7773C109.121 51.6459 112.838 49.5145 116.556 47.3881C116.769 47.2642 116.977 47.1353 117.205 47.0411C118.112 46.6594 119.108 46.9767 119.604 47.7995C120.12 48.652 119.921 49.7326 119.089 50.3324C118.642 50.6545 118.147 50.8974 117.666 51.175C114.191 53.1726 110.717 55.1701 107.242 57.1627C106.811 57.4105 106.389 57.6633 106.102 57.6435Z" fill="#E22A31"/>
<path d="M126.91 62.7738C126.851 63.5619 126.474 64.2409 125.631 64.5383C121.359 66.0353 117.086 67.5272 112.798 68.9795C111.718 69.3463 110.707 68.7714 110.38 67.7552C110.062 66.7689 110.513 65.7379 111.544 65.3711C115.812 63.8642 120.085 62.3673 124.372 60.9249C125.656 60.4887 126.88 61.4206 126.91 62.7738Z" fill="#E22A31"/>
<path d="M127.099 75.5818C128.581 75.5124 129.423 76.1518 129.542 77.2026C129.666 78.3328 129.027 79.1853 127.788 79.3588C124.367 79.8446 120.942 80.2807 117.522 80.7318C116.794 80.826 116.07 80.9499 115.336 80.9995C114.3 81.0689 113.448 80.365 113.324 79.3935C113.185 78.3228 113.775 77.391 114.846 77.2423C119.019 76.6524 123.203 76.1072 127.099 75.5818Z" fill="#E22A31"/>
</g>
<defs>
<clipPath id="clip0_1_367">
<rect width="94.673" height="87" fill="white" transform="translate(36.5 34)"/>
</clipPath>
</defs>
</svg>
