<svg width="76" height="88" viewBox="0 0 76 88" fill="none" xmlns="http://www.w3.org/2000/svg">
<g clip-path="url(#clip0_1_353)">
<path d="M76 34.7912C75.1179 38.0384 74.7582 41.422 73.435 44.5669C71.0939 50.1266 67.5789 54.7177 62.7882 58.3606C60.5761 60.0387 58.2146 61.6146 57.0204 64.5889C57.6311 64.6776 58.0382 64.7799 58.4454 64.7799C59.4971 64.7799 60.4811 64.7048 60.4132 66.2943C60.3521 67.7201 59.4157 67.5359 58.5336 67.5632C57.9704 67.5768 57.4071 67.6041 56.8439 67.57C55.8736 67.5154 55.4393 68.0475 55.195 68.9071C54.8829 70.0054 55.4121 70.3465 56.3825 70.3601C57.4546 70.3738 57.6379 71.0628 57.6311 71.9564C57.6243 72.8433 57.095 73.0957 56.3418 73.1639C55.7854 73.2116 54.9711 73.273 55.0389 73.9348C55.3239 76.6498 53.1186 78.0483 52.2161 80.0198C50.7571 83.192 48.7486 85.3749 46.1429 87.3191C44.5618 87.3191 42.9739 87.3191 41.3929 87.3191C38.4139 85.5659 35.7336 83.574 35.2518 79.7674C31.1329 79.2353 34.1389 73.3276 29.9793 72.6864C29.4704 72.6045 29.4161 71.1105 30.1829 70.6671C31.1057 70.135 32.5036 70.1623 31.8182 68.4841C31.2075 66.9902 29.8843 67.7064 28.8664 67.5973C27.8418 67.4881 26.7764 67.6723 26.8239 66.0829C26.8646 64.6912 27.7943 64.8208 28.7036 64.7867C29.1243 64.7731 29.545 64.6844 30.1218 64.6093C28.8393 61.2939 26.03 59.6908 23.6143 57.7125C16.1093 51.5729 11.9904 43.6869 11.5425 33.9453C11.5018 33.0176 10.7961 31.4963 12.7504 31.4076C14.6232 31.3189 14.1889 32.7379 14.25 33.7816C14.8336 43.0456 18.7557 50.5155 26.1454 56.1094C28.7782 58.1013 31.3704 60.1411 32.7954 63.2313C33.44 64.6298 34.4307 64.8276 35.7743 64.814C40.9722 64.7594 46.17 64.7594 51.3611 64.814C52.7047 64.8276 53.6818 64.6162 54.3468 63.2245C55.7582 60.2843 58.2079 58.2719 60.7593 56.3345C79.5896 42.0087 76.095 14.1143 54.2925 4.9117C51.1575 3.58827 47.7986 2.85834 44.3854 2.97431C42.1189 3.04935 41.3454 2.05336 41.3929 0C43.6525 0 45.9189 0 48.1786 0C48.8232 0.798152 49.8139 0.682181 50.6554 0.886835C60.6643 3.32222 68.0064 9.09347 72.5529 18.4189C74.2425 21.8912 74.9211 25.6773 76 29.3338C76 31.1552 76 32.9698 76 34.7912ZM43.4489 67.57C41.3046 67.57 39.1604 67.495 37.0229 67.6109C36.2222 67.6519 34.77 66.8947 34.8175 68.7161C34.8514 70.0122 35.6861 70.3738 36.8736 70.367C41.3861 70.3328 45.8986 70.3533 50.4111 70.3533C51.3679 70.3533 52.1889 70.2578 52.2771 68.9753C52.3925 67.2289 51.1439 67.6109 50.2211 67.5905C47.9682 67.5427 45.7086 67.57 43.4489 67.57ZM43.9646 73.1912C41.61 73.1912 39.2486 73.2048 36.8939 73.1844C35.8082 73.1775 35.2179 73.5937 35.2654 74.7738C35.3129 75.8858 36.0593 76.0018 36.8871 76.0018C41.3725 76.0086 45.8646 76.0154 50.35 75.9949C51.1507 75.9881 51.9718 75.8926 52.0125 74.7875C52.0532 73.6346 51.4493 73.1844 50.3568 73.1912C48.2261 73.198 46.0954 73.1912 43.9646 73.1912ZM43.7271 78.9283C43.1639 78.9283 42.5736 78.8192 42.0443 78.9488C40.7754 79.2694 38.6921 77.9255 38.3596 79.9038C38.0746 81.5956 39.5607 83.0009 41.1554 83.7991C43.5711 85.0065 45.7696 84.4813 47.6222 82.6189C48.4093 81.8344 49.2507 80.8111 48.7757 79.6241C48.2939 78.4099 47.0182 79.0579 46.0886 78.9488C45.3082 78.8533 44.5143 78.9283 43.7271 78.9283Z" fill="#1E1E1E"/>
<path d="M17.6429 0C18.8168 3.30176 19.7668 6.79452 24.1572 7.18336C24.7204 7.23112 25.1139 7.74958 25.1547 8.39083C25.2022 9.22991 24.6525 9.6665 23.9604 9.78247C20.6422 10.3282 18.81 12.2793 18.2807 15.581C18.1586 16.3314 17.5682 16.768 16.815 16.6589C16.0754 16.5497 15.7022 15.9767 15.58 15.2467C15.0847 12.2179 13.395 10.4033 10.3279 9.89162C9.57465 9.76883 8.76715 9.44138 8.81465 8.39083C8.84179 7.74275 9.26251 7.24476 9.81894 7.19019C14.1754 6.77406 15.2204 3.38362 16.2857 0C16.7404 0 17.1882 0 17.6429 0ZM16.8014 6.38521C16.1364 7.05375 14.9082 7.52446 15.0982 8.57501C15.2543 9.43456 16.1093 10.4988 17.2222 10.2736C18.0025 10.1167 18.9322 9.35952 18.8711 8.4454C18.7964 7.42895 17.9211 6.7877 16.8014 6.38521Z" fill="#1E1E1E"/>
<path d="M0 21.8297C3.36571 20.8064 6.78571 19.865 7.29464 15.4854C7.37607 14.7691 7.85107 14.2575 8.68571 14.3257C9.51357 14.3939 9.90036 15.0351 9.98857 15.6832C10.4432 18.9645 12.3839 20.6495 15.5189 21.1816C16.2314 21.3044 16.7879 21.7342 16.8014 22.5255C16.815 23.3236 16.2518 23.7466 15.5393 23.8762C12.4382 24.4492 10.45 26.0933 9.99536 29.3814C9.90714 30.0295 9.50679 30.6707 8.68571 30.7321C7.86464 30.7935 7.36929 30.3092 7.28786 29.5792C6.78571 25.2065 3.325 24.2855 0 23.194C0 22.737 0 22.2867 0 21.8297ZM10.5925 22.5801C10.1989 21.6045 9.55429 20.6154 8.57036 20.6495C7.63393 20.6836 6.71107 21.5704 6.76536 22.6483C6.81286 23.5351 7.67464 24.381 8.47536 24.4288C9.50679 24.5038 10.1039 23.5078 10.5925 22.5801Z" fill="#1E1E1E"/>
<path d="M42.1461 32.4036C42.1529 38.5432 42.1054 44.6828 42.1664 50.8225C42.1936 53.5239 41.5557 55.8774 38.9771 57.0849C36.4596 58.2582 34.0575 57.7944 32.2932 55.5295C31.4789 54.479 30.5493 54.8405 29.5721 54.7928C26.3896 54.629 24.0961 52.6166 24.1571 49.4513C24.1911 47.7663 23.655 46.9545 22.4336 46.2246C22.2436 46.1086 22.0468 45.9517 21.9382 45.7607C19.4411 41.4425 19.4954 36.2102 17.0457 31.8715C19.7939 28.522 19.2239 23.9514 21.0764 20.4313C22.3114 18.0983 24.5846 16.3314 24.51 13.323C24.51 13.2207 24.5982 13.1183 24.6525 13.016C25.3243 11.7744 26.4168 10.2191 27.5704 10.4374C31.8182 11.2287 34.2204 5.35512 38.6989 7.54492C41.1011 8.71827 42.1461 10.6693 42.1393 13.3025C42.1257 19.6673 42.1393 26.0388 42.1461 32.4036ZM39.3775 32.5468C39.3707 32.5468 39.3707 32.5468 39.3639 32.5468C39.3639 26.0661 39.3911 19.5854 39.3504 13.1047C39.3368 11.0786 38.3529 9.7893 36.1814 10.1304C34.0032 10.4715 33.8268 11.829 34.7225 13.6095C35.0143 14.1825 35.3671 15.008 34.5257 15.3764C33.82 15.6902 32.965 15.7379 32.4018 14.9057C32.3407 14.8101 32.2661 14.7215 32.2118 14.626C31.1193 12.6203 29.4093 12.0268 27.7943 13.5686C26.1725 15.1171 26.6543 16.8908 28.6289 18.0369C29.5857 18.5894 29.9114 19.4217 29.5179 20.3222C28.9411 21.632 27.9843 20.6837 27.2175 20.4586C24.5779 19.6946 22.2911 21.6388 22.7118 24.4016C22.99 26.2299 23.9807 27.5874 25.8943 27.9353C28.0386 28.331 29.7689 27.5874 30.5493 25.4863C31.0446 24.1424 31.8521 23.467 33.0464 24.0605C34.3357 24.7018 33.3857 25.9502 33.0939 26.7415C31.9743 29.7704 28.2896 31.4554 24.9375 30.6299C24.5032 30.5208 24.0961 30.3161 23.6957 30.1183C22.4064 29.477 21.2868 29.6339 20.4114 30.8278C19.6446 31.8715 19.6582 32.9562 20.4318 33.9726C21.3275 35.146 22.4132 35.0914 23.7568 34.6548C28.4186 33.1472 32.3543 34.8594 33.3043 38.7411C33.4604 39.3823 34.1932 40.3578 32.9989 40.7603C32.11 41.0605 31.1939 41.0059 30.78 39.853C30.59 39.3277 30.3864 38.7683 30.0404 38.3454C28.5204 36.483 26.5864 36.1761 24.6118 37.3903C22.7593 38.5296 22.135 40.3715 23.0443 42.4112C23.9332 44.3895 25.3243 45.481 27.6111 44.1712C28.2286 43.8165 29.1582 43.3117 29.5518 44.5055C29.8707 45.4742 29.5179 46.2178 28.5814 46.7703C26.6136 47.9437 26.2064 49.7037 27.835 51.2454C29.2939 52.6234 31.0175 52.2687 32.0489 50.3722C32.6596 49.2535 33.5554 48.8987 34.5596 49.4172C35.5571 49.9288 34.8921 50.8975 34.58 51.5115C33.7454 53.1487 34.2611 54.1379 35.8829 54.5949C37.5929 55.0793 38.7939 54.3357 39.2282 52.6371C39.4521 51.7775 39.3639 50.8293 39.3707 49.922C39.3843 44.1439 39.3775 38.3454 39.3775 32.5468Z" fill="#1E1E1E"/>
<path d="M44.9418 32.2332C44.9418 26.4483 44.9486 20.6634 44.9418 14.8785C44.935 12.0679 45.1793 9.30507 48.0089 7.83156C50.7979 6.38533 53.2543 7.08116 55.2018 9.52337C55.9279 10.4307 56.8575 9.94632 57.7125 10.0009C60.8747 10.2055 62.795 11.9178 63.0393 15.0559C63.1614 16.6385 63.3854 17.805 64.8579 18.6509C65.9436 19.2786 67.1582 20.6702 66.8732 21.6184C65.4822 26.2914 71.4061 29.3475 69.7843 33.2974C68.3322 36.8311 67.83 40.6103 66.3236 43.9121C65.1089 46.5726 62.8697 48.7692 62.3607 51.9414C62.1707 53.1488 60.7661 54.5132 59.755 54.3222C55.5682 53.5308 53.295 59.0156 48.9454 57.3647C45.7425 56.1504 44.9757 53.6059 44.9622 50.5975C44.9147 44.4851 44.9418 38.3591 44.9418 32.2332ZM47.7647 32.2195C47.7647 33.809 47.7647 35.3985 47.7647 36.9948C47.7782 41.8792 47.7307 46.7704 47.8325 51.6549C47.8732 53.565 48.7554 55.0589 50.9947 54.6769C53.1457 54.3085 53.4036 52.9919 52.44 51.1705C52.1279 50.577 52.0261 49.7038 52.7793 49.39C53.4647 49.1103 54.3536 49.008 54.8693 49.9016C54.9847 50.0995 55.0457 50.3246 55.1679 50.5088C56.3689 52.2211 57.95 52.6167 59.4632 51.1773C61.0307 49.6902 60.6643 48.0257 58.8729 46.9478C57.8075 46.3066 57.3461 45.5152 57.7532 44.4647C58.2757 43.1276 59.3004 43.9803 59.945 44.3419C61.6279 45.3037 62.7814 44.5465 63.7179 43.2845C64.8443 41.7701 64.8579 40.1055 63.7925 38.5297C61.9264 35.7669 58.3368 36.183 56.5454 39.5939C55.9007 40.8218 55.1814 41.1561 54.2247 40.7536C53.0643 40.2693 53.7089 39.1778 53.9804 38.3933C55.2289 34.7777 59.1104 33.1064 63.1818 34.5458C64.6 35.0438 65.8214 35.3507 66.8054 34C67.5314 32.9972 67.5314 31.8102 66.8189 30.8142C65.8554 29.4635 64.6272 29.7227 63.2089 30.2412C59.66 31.5373 56.6472 30.6573 54.8286 27.9081C54.0618 26.7484 52.7318 25.1453 54.2518 24.1084C55.8397 23.0237 56.3214 24.9816 56.9593 26.1072C57.2239 26.5847 57.6582 27.0145 58.1129 27.3215C59.8229 28.4539 61.5736 28.3925 63.1004 27.0486C64.7561 25.5955 65.0479 23.7195 63.9282 21.8299C62.9579 20.1927 61.6007 19.4491 59.6804 20.5815C59.1443 20.8953 58.1739 21.6594 57.7668 20.3837C57.4275 19.3195 57.7668 18.5145 58.8593 17.8733C60.6643 16.8091 61.0579 15.1582 59.5039 13.6506C58.0043 12.1907 56.2875 12.5045 55.2425 14.2918C54.5979 15.4038 53.8175 15.9086 52.8268 15.4038C51.775 14.8648 52.3179 13.8484 52.7182 13.0298C53.3629 11.7268 52.915 10.7786 51.6732 10.3011C50.2618 9.74848 48.8639 9.9736 48.26 11.5153C47.8597 12.5318 47.8054 13.7324 47.7986 14.8512C47.7443 20.6293 47.7647 26.421 47.7647 32.2195Z" fill="#1E1E1E"/>
</g>
<defs>
<clipPath id="clip0_1_353">
<rect width="76" height="87.3191" fill="white"/>
</clipPath>
</defs>
</svg>
