<svg width="160" height="160" viewBox="0 0 160 160" fill="none" xmlns="http://www.w3.org/2000/svg">
<circle cx="80" cy="80" r="80" fill="#F8F8F8"/>
<g clip-path="url(#clip0_1_384)">
<path d="M123.142 120.23C123.142 122.7 124.105 126.135 122.87 127.37C121.635 128.605 118.2 127.642 115.73 127.642C114.717 126.796 113.407 126.135 112.752 125.066C110.368 121.181 105.285 121.082 102.641 117.605C101.992 116.752 101.103 117.567 100.374 117.79C89.7624 121.039 79.898 117.08 74.8084 107.357C74.0177 105.85 73.1839 105.337 71.5161 105.362C64.9378 105.461 58.3534 105.331 51.7689 105.442C49.502 105.479 47.7601 104.868 46.5495 102.935C46.5495 86.3005 46.5865 69.6664 46.5001 53.0384C46.4939 51.2966 46.883 50.9939 48.5693 51.0001C68.4895 51.0742 88.4035 51.0495 108.324 51.0495C110.251 52.2602 110.856 53.9897 110.831 56.2504C110.739 65.3797 110.794 74.5028 110.788 83.6321C110.788 84.9663 110.825 86.2202 111.554 87.4679C114.797 93.0023 115.341 98.8394 113.277 104.924C113.061 105.566 112.302 106.468 112.981 106.9C116.106 108.889 115.94 112.997 118.627 115.288C120.307 116.727 121.647 118.568 123.142 120.23ZM108.317 82.7056C108.317 75.7814 108.28 69.3205 108.342 62.8595C108.355 61.408 107.922 60.9077 106.427 60.9077C87.9093 60.9509 69.3913 60.9386 50.8732 60.92C49.6564 60.92 48.9955 61.1486 49.0017 62.5878C49.0449 75.3429 49.0326 88.098 49.0202 100.853C49.0202 102.255 49.5946 102.935 51.0338 102.928C58.3225 102.91 65.6111 102.922 72.9862 102.922C71.4791 94.0215 73.678 86.5352 80.9049 81.4147C83.9809 79.2342 85.488 77.1835 84.8827 73.5207C84.7098 72.4645 84.6295 71.26 86.2107 70.84C90.1762 69.7837 92.0478 71.0438 92.2702 75.0217C92.3196 75.8555 91.9181 76.9488 93.4561 76.9982C94.9941 77.0415 94.7162 75.9791 94.7224 75.1143C94.7471 72.2359 94.92 69.339 94.6791 66.4792C94.432 63.5637 95.9392 63.2672 98.2184 63.3784C100.275 63.4772 102.431 62.9522 102.202 66.3433C101.962 69.827 102.147 73.3354 102.153 76.8315C102.153 77.8445 102.03 78.8204 103.222 79.4628C104.815 80.3214 106.304 81.4085 108.317 82.7056ZM78.6689 58.4617C87.724 58.4617 96.7854 58.4308 105.841 58.4926C107.552 58.5049 108.478 58.3196 108.385 56.2071C108.299 54.2367 107.725 53.4832 105.686 53.4893C87.6746 53.5449 69.6569 53.5449 51.6453 53.4893C49.607 53.4832 49.0387 54.2367 48.9523 56.2071C48.8596 58.3134 49.7861 58.5049 51.4971 58.4926C60.5523 58.4246 69.6137 58.4617 78.6689 58.4617ZM93.7649 79.4628C83.5732 79.3516 75.1419 87.4741 74.9751 97.5546C74.8083 107.876 82.9803 116.375 93.2276 116.517C103.5 116.659 111.962 108.364 112.017 98.1044C112.073 87.9497 103.87 79.574 93.7649 79.4628ZM120.653 121.607C120.3 119.711 118.46 118.568 117.045 117.147C116.218 116.314 115.402 114.547 114.321 115.06C112.839 115.764 111.752 117.339 110.566 118.605C110.096 119.105 110.628 119.556 110.967 119.896C112.487 121.416 113.982 122.966 115.581 124.399C116.576 125.288 117.793 125.431 118.997 124.714C120.053 124.096 120.622 123.182 120.653 121.607ZM113.679 111.73C113.395 110.668 112.623 110.1 111.894 109.587C110.943 108.92 110.696 110.007 110.313 110.483C109.028 112.101 107.613 113.583 105.952 114.806C105.18 115.375 104.309 115.887 105.482 116.894C106.279 117.574 106.86 118.858 108.169 117.438C109.695 115.77 111.35 114.232 112.944 112.626C113.222 112.348 113.45 112.015 113.679 111.73ZM99.6638 72.063C99.6638 70.42 99.6514 68.7769 99.67 67.1339C99.6823 66.2383 99.3241 65.8306 98.3852 65.88C97.6563 65.9171 97.224 66.158 97.2301 66.9362C97.2363 70.1173 97.224 73.3045 97.261 76.4856C97.2734 77.4368 98.0331 77.5727 98.7805 77.6283C99.7503 77.6962 99.6453 76.955 99.6576 76.3744C99.6823 74.9414 99.6638 73.5022 99.6638 72.063ZM87.3102 75.4417C87.6376 76.1335 86.5628 77.6283 88.422 77.5974C89.9786 77.5727 89.8365 76.3682 89.7686 75.3676C89.713 74.5708 90.2689 73.4033 88.7123 73.2922C86.9766 73.1686 87.3843 74.404 87.3102 75.4417Z" fill="black"/>
<path d="M62.5967 90.5562C56.9141 90.5438 52.1085 86.1953 51.5465 80.5497C50.972 74.8239 55.0425 69.518 60.7314 68.4741C62.9612 68.0664 63.9309 68.7026 63.9062 71.1487C63.8815 73.4526 62.7635 76.5287 64.4807 77.8628C65.9075 78.9747 68.823 78.289 71.0713 78.184C73.3691 78.079 73.9621 79.0797 73.6162 81.1736C72.7452 86.5042 68.02 90.5623 62.5967 90.5562ZM61.3737 75.7442C61.3737 74.3791 61.3367 73.4526 61.3861 72.5384C61.454 71.3031 61.0896 70.9572 59.7863 71.3093C55.0981 72.594 52.3556 79.3267 54.9252 83.3602C55.3761 84.0643 55.8023 84.6203 56.5064 83.7864C58.6498 81.2601 62.572 79.7406 61.3737 75.7442ZM62.152 88.0854C66.1052 88.1349 69.7927 85.5159 70.7192 82.3472C71.0528 81.1921 70.9416 80.7165 69.5765 80.6733C65.7716 80.5436 61.9729 80.2533 59.6072 84.1879C59.1007 85.0279 57.5627 85.5283 58.0259 86.5412C58.3471 87.2392 59.7245 87.4987 60.6758 87.8446C61.2379 88.0484 61.8741 88.0422 62.152 88.0854Z" fill="black"/>
<path d="M59.9036 100.464C58.4706 100.464 57.0376 100.464 55.6046 100.464C51.4414 100.458 51.5588 100.452 51.4476 96.2081C51.3858 93.8485 52.022 92.8664 54.5484 92.9961C58.2236 93.1876 61.9235 93.2309 65.5925 92.99C68.6129 92.7861 68.9094 94.2809 68.8353 96.6837C68.7674 98.8826 68.9527 100.865 65.7284 100.501C63.8074 100.285 61.8432 100.464 59.9036 100.464ZM59.9901 97.9808C61.6332 97.9808 63.2824 97.9746 64.9254 97.9808C65.7222 97.987 66.2966 97.8387 66.3152 96.8257C66.3275 95.8992 65.9816 95.5163 65.0675 95.5224C61.7752 95.5348 58.4892 95.5348 55.1969 95.5224C54.2766 95.5163 53.9492 95.9301 53.9616 96.8381C53.9739 97.8573 54.5731 97.987 55.3637 97.987C56.9079 97.9808 58.4521 97.9808 59.9901 97.9808Z" fill="black"/>
<path d="M72.5599 75.7567C65.3331 75.6517 66.4202 76.7326 66.3214 69.5861C66.3152 68.9684 66.3214 68.3507 66.3214 67.733C66.3214 63.1066 67.2232 62.458 71.5222 64.1505C75.2345 65.6144 77.4705 68.3939 78.4464 72.2483C79.0641 74.6881 78.4958 76.0717 75.6483 75.7752C74.623 75.664 73.5853 75.7567 72.5599 75.7567ZM72.492 73.3107C73.6038 73.1192 75.2036 73.8357 75.6792 72.9277C76.3093 71.7294 75.2221 70.4323 74.4315 69.3699C73.3753 67.943 72.0164 66.8683 70.2745 66.3865C69.7371 66.2382 68.8971 65.8244 68.8662 66.788C68.7921 68.814 68.5574 70.9573 69.1133 72.8412C69.4283 73.8975 71.3431 73.0636 72.492 73.3107Z" fill="black"/>
<path d="M93.4005 114.028C84.5615 113.985 77.3717 106.671 77.4582 97.8139C77.5446 88.9811 84.858 81.8654 93.7587 81.9457C102.419 82.026 109.547 89.2776 109.547 98.0054C109.547 106.82 102.246 114.065 93.4005 114.028ZM84.4874 88.3634C80.5836 91.7854 79.2062 96.0041 80.2995 101.044C80.5775 102.317 81.0592 102.978 82.5231 102.965C89.8179 102.904 97.1128 102.935 104.408 102.935C105.359 102.935 106.075 102.873 106.539 101.705C108.188 97.4804 106.248 90.9453 102.419 88.3758C102.017 91.3962 102.209 91.2418 104.012 93.4902C105.353 95.1703 104.735 97.4619 104.42 99.4261C104.185 100.915 102.61 100.445 101.554 100.451C96.2109 100.488 90.868 100.488 85.5251 100.451C84.4688 100.445 82.8999 100.952 82.6096 99.5002C82.2143 97.5422 81.4731 94.4661 82.9741 93.7125C85.8833 92.2301 84.4565 90.2474 84.4874 88.3634ZM82.4984 105.541C88.5023 114.745 101.461 112.095 104.247 105.541C97.0757 105.541 89.96 105.541 82.4984 105.541ZM93.524 97.9869C95.7847 97.9869 98.0516 97.9869 100.312 97.9869C101.239 97.9869 102.209 98.1228 102.141 96.6465C102.079 95.3494 101.189 95.5285 100.405 95.5285C95.7786 95.5162 91.1521 95.5162 86.5195 95.5285C85.7042 95.5285 84.8703 95.4359 84.8394 96.7083C84.8086 97.9437 85.5374 97.9931 86.4207 97.9931C88.7926 97.9807 91.1583 97.9869 93.524 97.9869ZM94.7285 89.1108C94.7285 87.9434 94.7409 87.0231 94.7285 86.0966C94.7162 85.275 94.8026 84.4412 93.5426 84.4103C92.3196 84.3794 92.264 85.1268 92.264 86.0039C92.2701 86.9242 92.0725 87.9002 92.301 88.7588C92.6902 90.1856 90.9668 92.8849 93.5982 92.854C96.0256 92.8293 94.0305 90.1609 94.7285 89.1108ZM89.7871 85.275C87.9711 85.2256 87.1805 85.8989 87.304 87.6037C87.3905 88.8143 87.3225 90.0373 87.3225 91.2542C87.3225 92.1745 87.2052 93.1196 88.6505 93.0516C89.9106 92.996 89.7747 92.1498 89.7809 91.3654C89.7932 89.3394 89.7871 87.3257 89.7871 85.275ZM99.6699 89.5123C99.6699 88.6661 99.6144 88.0546 99.6823 87.4554C99.812 86.2386 99.3055 85.4048 98.1196 85.3121C96.3901 85.1824 97.4463 86.5907 97.2425 87.2701C97.0448 87.9187 97.0139 88.7402 97.2363 89.3703C97.6687 90.5871 95.933 92.9775 98.484 92.9096C100.899 92.8416 99.0214 90.445 99.6699 89.5123Z" fill="black"/>
</g>
<defs>
<clipPath id="clip0_1_384">
<rect width="77" height="77" fill="white" transform="translate(46.5 51)"/>
</clipPath>
</defs>
</svg>
